<?xml version="1.0" encoding="utf-8"?>
<!-- Generator: Adobe Illustrator 25.0.1, SVG Export Plug-In . SVG Version: 6.00 Build 0)  -->
<svg version="1.0" id="Layer_1" xmlns="http://www.w3.org/2000/svg" xmlns:xlink="http://www.w3.org/1999/xlink" x="0px" y="0px"
	 viewBox="0 0 892 552" style="enable-background:new 0 0 892 552;" xml:space="preserve">
<style type="text/css">
	.st0{fill:#6E7073;}
	.st1{fill:#00187E;}
	.st2{fill:#D60812;}
	.st3{fill:none;}
</style>
<path class="st0" d="M282.7,388.3c-0.5-1.3-0.9-2.6-1.2-4h-0.1c-0.3,1.4-0.7,2.7-1.2,4.1l-3.5,9.6h9.5L282.7,388.3 M289.5,407.2
	l-2.2-6.3h-11.5l-2.2,6.3h-3.8l9.8-27h4.1l9.9,27H289.5z"/>
<path class="st0" d="M333.2,407.2v-12.7c0-2.8-0.6-4.5-3.2-4.5c-2.8,0-5.5,3-5.5,7.8v9.5h-3.6v-12.8c0-2.5-0.5-4.5-3.2-4.5
	c-3,0-5.6,3.2-5.6,7.8v9.5h-3.6v-19.8h3.5c0,1.4-0.1,2.8-0.3,4.2h0.1c1.1-2.8,3.9-4.7,6.9-4.6c4.2,0,5.3,2.9,5.5,4.5
	c1.2-2.7,3.8-4.5,6.8-4.5c3.7,0,5.9,2,5.9,6.5v13.7L333.2,407.2"/>
<path class="st0" d="M351.7,389.6c-2.6,0-4.4,2-4.8,4.9h9.3C356.2,391.5,354.5,389.6,351.7,389.6 M359.7,397h-13
	c-0.1,5.3,2,7.6,6.3,7.6c2,0,4-0.4,5.8-1.2l0.3,2.9c-2.1,0.8-4.4,1.3-6.7,1.2c-6.1,0-9.4-3.2-9.4-10.2c0-6,3.2-10.4,8.9-10.4
	s8,3.8,8,8.3C359.8,395.8,359.8,396.3,359.7,397"/>
<path class="st0" d="M391,407.2v-12.7c0-2.8-0.6-4.5-3.2-4.5c-2.8,0-5.5,3-5.5,7.8v9.5h-3.6v-12.8c0-2.5-0.5-4.5-3.2-4.5
	c-3,0-5.6,3.2-5.6,7.8v9.5h-3.6v-19.8h3.5c0,1.4-0.1,2.8-0.3,4.2h0.1c1.1-2.8,3.9-4.7,6.9-4.6c4.2,0,5.3,2.9,5.5,4.5
	c1.1-2.7,3.8-4.5,6.8-4.5c3.8,0,5.9,2,5.9,6.5v13.7L391,407.2"/>
<path class="st0" d="M411.6,389.9c-3.6,0-5.4,4.2-5.4,7.6v6.6c1.1,0.3,2.3,0.5,3.5,0.5c3.8,0,6.3-2.3,6.3-8
	C416,392.3,414.6,389.9,411.6,389.9 M409.4,407.4c-2.3,0-4.6-0.2-6.8-0.8V378h3.6v9.6c0,1.2-0.1,2.5-0.4,3.7h0.1
	c1-2.7,3.7-4.5,6.6-4.4c4.7,0,7.3,3.3,7.3,9.3C419.7,403.3,415.8,407.4,409.4,407.4"/>
<path class="st0" d="M433,389.6c-2.6,0-4.4,2-4.9,4.9h9.3C437.5,391.5,435.8,389.6,433,389.6 M441,397h-13c-0.2,5.3,2,7.6,6.3,7.6
	c2,0,4-0.4,5.8-1.2l0.3,2.9c-2.1,0.8-4.4,1.3-6.7,1.2c-6.1,0-9.4-3.2-9.4-10.2c0-6,3.2-10.4,8.9-10.4s8,3.8,8,8.3
	C441.1,395.9,441.1,396.4,441,397"/>
<path class="st0" d="M457.3,390.5c-4.2-0.7-6.2,2.4-6.2,8.7v8h-3.6v-19.9h3.4c0,1.6-0.2,3.2-0.4,4.7h0.1c0.8-2.8,2.9-5.5,6.8-5.1
	L457.3,390.5"/>
<path class="st0" d="M480.4,390c-2.9,0-5.6,2.2-5.6,7.1s2,7.4,5.6,7.4c3,0,5.5-2.3,5.5-7.4C485.9,392.6,484,390,480.4,390
	 M479.9,407.6c-5.4,0-8.9-3.1-8.9-10.1c0-5.8,3.7-10.5,9.6-10.5c5.1,0,9,2.8,9,9.9C489.6,402.9,485.8,407.6,479.9,407.6"/>
<path class="st0" d="M507.4,381.1c-0.9-0.3-1.9-0.5-2.9-0.5c-2.8,0-4.1,1.6-4.1,5.1v1.5h5.5v2.8h-5.5v17h-3.6v-17h-4.1v-2.8h4.1
	v-1.5c0-5.5,2.7-8.1,7.6-8.1c1.1,0,2.2,0.1,3.3,0.4L507.4,381.1"/>
<path class="st0" d="M527.5,407.5c-4.1,0-5.3-1.7-5.3-6v-11.4h-4.1v-2.8h4.1v-6.4l3.6-1v7.4h5.5v2.8h-5.5v10.1
	c0,3.3,0.6,4.1,2.8,4.1c0.9,0,1.8-0.1,2.7-0.3v3C530.1,407.3,528.8,407.4,527.5,407.5"/>
<path class="st0" d="M550.1,407.2v-12.8c0-2.8-0.8-4.4-3.4-4.4c-3.3,0-5.6,3.3-5.6,7.7v9.5h-3.6V378h3.6v9.4c0,1.3-0.1,2.7-0.3,4
	h0.1c1.1-2.8,3.9-4.6,6.9-4.5c4.5,0,6,2.8,6,6.3v13.9L550.1,407.2"/>
<path class="st0" d="M568.6,389.6c-2.6,0-4.4,2-4.8,4.9h9.3C573.1,391.5,571.4,389.6,568.6,389.6 M576.6,397h-13
	c-0.2,5.3,2,7.6,6.3,7.6c2,0,4-0.4,5.8-1.2l0.3,2.9c-2.1,0.8-4.4,1.3-6.7,1.2c-6.1,0-9.4-3.2-9.4-10.2c0-6,3.2-10.4,8.9-10.4
	s7.9,3.8,7.9,8.3C576.7,395.8,576.7,396.3,576.6,397"/>
<path class="st0" d="M603.7,383c-4.5,0-8.5,3.6-8.5,10.4c0,6.4,2.7,10.8,8.4,10.8c4.4,0,8.5-3.5,8.5-10.5S609.1,383,603.7,383
	 M603.3,407.5c-8.1,0-12-5.4-12-13.6c0-9,5.8-14.2,12.8-14.2c7.3,0,12,4.7,12,13.6C616.1,402.2,610.4,407.5,603.3,407.5"/>
<path class="st0" d="M633.2,407.5c-8.7,0-12.3-5.5-12.3-13.1c0-8.2,4.1-14.4,13.2-14.4c2.1,0,4.1,0.3,6.1,0.8l-0.4,3.4
	c-2-0.6-4-1-6.1-1c-6.1,0-8.8,4.7-8.8,10.6c0,6.6,2.9,10.4,9.1,10.4c2.1,0,4.1-0.5,6-1.4l0.4,3.3C638.2,407,635.7,407.5,633.2,407.5
	"/>
<path class="st0" d="M653.7,394.6c-0.5,0-1.9,0-2.5,0v9.4c1.1,0.2,2.3,0.2,3.4,0.2c4.4,0,6.3-2.1,6.3-5.1
	C660.9,395.7,657.8,394.6,653.7,394.6 M654.8,383c-1.2,0-2.6,0-3.6,0.1v8.7c0.8,0,1.5,0,2.4,0c4.4,0,6.8-1.8,6.8-4.7
	C660.4,384.7,659.1,383,654.8,383 M654.3,407.2c-1.6,0-4.2-0.1-6.9-0.1v-26.9c2,0,4.7-0.1,7.9-0.1c5.9,0,8.8,2.4,8.8,6.5
	c-0.1,2.9-2,5.5-4.8,6.3v0.1c3.1,0.3,5.5,3,5.4,6.2C664.8,402.3,662.8,407.3,654.3,407.2"/>
<path class="st0" d="M682.2,407.5c-8.7,0-12.3-5.5-12.3-13.1c0-8.2,4.1-14.4,13.2-14.4c2.1,0,4.1,0.3,6.1,0.8l-0.4,3.4
	c-2-0.6-4-1-6.1-1c-6.2,0-8.8,4.7-8.8,10.6c0,6.6,2.9,10.4,9.1,10.4c2.1,0,4.1-0.5,6-1.4l0.4,3.3C687.1,407,684.6,407.5,682.2,407.5
	"/>
<path class="st0" d="M725.6,384.4c-2.3-0.9-4.7-1.4-7.2-1.4c-5.5,0-10.3,3.6-10.3,10.8c0,6.7,3.9,10.5,10,10.5
	c1.6,0,3.2-0.2,4.7-0.7v-10.2h3.6V406c-2.9,1-5.9,1.5-8.9,1.5c-8.1,0-13.4-4.9-13.4-13.3s5.5-14.4,14.6-14.4c2.5,0,5,0.4,7.4,1.2
	L725.6,384.4"/>
<path class="st0" d="M744.1,390.5c-4.2-0.7-6.2,2.4-6.2,8.7v8h-3.6v-19.9h3.5c0,1.6-0.2,3.2-0.4,4.7h0.1c0.8-2.8,2.9-5.5,6.8-5.1
	L744.1,390.5"/>
<path class="st0" d="M756.7,390c-2.9,0-5.6,2.2-5.6,7.1s2,7.4,5.6,7.4c3,0,5.5-2.3,5.5-7.4C762.2,392.6,760.4,390,756.7,390
	 M756.3,407.6c-5.4,0-8.9-3.1-8.9-10.1c0-5.8,3.7-10.5,9.7-10.5c5.1,0,8.9,2.8,8.9,9.9C766,402.9,762.1,407.6,756.3,407.6"/>
<path class="st0" d="M784.9,407.2c0-1.4,0.1-2.8,0.3-4.2h-0.1c-1.1,2.9-3.9,4.7-7,4.6c-4.5,0-6-2.8-6-6.3v-13.9h3.5v12.8
	c0,2.8,0.8,4.4,3.4,4.4c3.3,0,5.7-3.3,5.7-7.7v-9.5h3.5v19.8H784.9"/>
<path class="st0" d="M805.4,389.9c-3.6,0-5.4,4.2-5.4,7.7v6.5c1.1,0.3,2.3,0.5,3.5,0.5c3.8,0,6.3-2.3,6.3-8
	C809.8,392.3,808.3,389.9,805.4,389.9 M803.3,407.4c-1.1,0-2.2-0.1-3.3-0.2v9.9h-3.6v-29.7h3.5c0,1.3-0.1,2.7-0.3,4h0.1
	c1-2.8,3.7-4.5,6.7-4.4c4.6,0,7.3,3.3,7.3,9.3C813.5,403.3,809.7,407.3,803.3,407.4"/>
<path class="st1" d="M656.6,236.5c-1.4-5.7-1.2-9.5-2.5-9.5c-0.4,0-0.7,0.1-0.9,0.5c-4.1,5.8-7.4,10.6-18.5,10.6
	c-10.9,0-19.5-5.8-19.5-17c0-13.3,17.8-18.9,28.4-23.7c9-4.1,11.2-4.5,11.2-14.4c0-7.7-3-13.5-12.3-13.5c-15,0-8.8,14.7-19.1,14.7
	c-3.5,0-5.8-1.7-5.8-5.4c0-10.4,15.9-13.9,28.1-13.9c11.2,0,20.8,2.5,20.8,12.4v33.7c0,9-0.5,18.4,4.4,24.6L656.6,236.5
	 M640.5,229.4c9.5,0,14.2-8.3,14.2-17V197l-8.5,4.1c-11.7,5.7-17.8,8.7-17.8,17.5C628.4,226,633.4,229.5,640.5,229.4"/>
<path class="st1" d="M698.2,218.9V173c7.2-0.9,14.3-3,17.3-7.7c-5.6,0.5-11.4,0.7-17.3,0.9v-21.6l-11,2.9l-0.6,18.8h-7.5v7.4h7.4
	v47.5c0,9.4,3.8,16,14.2,16c6,0,13.4-4.6,13.6-6l0.6-6.6c-1.8,1.7-6.8,3.7-9.6,3.7C699,228.2,698.2,223.9,698.2,218.9"/>
<path class="st1" d="M615,332.6v-45.9c7.2-0.9,14.3-2.9,17.3-7.7c-5.6,0.5-11.4,0.7-17.3,0.9v-21.6l-11,2.9l-0.7,18.8h-7.4v7.4h7.4
	v47.5c0,9.3,3.8,16,14.2,16c6,0,13.4-4.6,13.6-6l0.6-6.6c-1.7,1.7-6.8,3.7-9.6,3.7C615.8,342,615,337.7,615,332.6"/>
<path class="st1" d="M488.4,153.6c-10.7-8.4-19.7-11.5-31.9-11.5c-24.5,0-37.9,20.1-37.9,42.5c0,28.3,13.1,46.7,43.5,46.7
	c3.9,0,7.8-0.4,11.7-1.1c1.6-5.2,1.6-10.6,1.6-15.8v-7.5c0-5,0-10.6-1.3-15.3c-0.8-2.9-3.6-2.9-7.5-4.8h23v35.4
	c0,4.5,0.4,8.9,1.1,13.3c-11.1,1.6-22.4,2.4-33.6,2.4c-33.3,0-54.9-14.2-54.9-48.7c0-37.1,27-54,62.3-54c7.9,0,15.8,1.1,23.8,1.7
	L488.4,153.6"/>
<path class="st1" d="M509.4,191.7c0-10.9,0-21.5-4.1-24.7c5.8-0.1,11.3-0.8,13.2-0.8c2.8,0,1.1,7.7,2.8,7.7c0.8,0,6-9.2,15.3-9.2
	c5.5,0,8.7,2.2,8.7,5.8c0,2.9-1.6,5.1-5.5,5.1c-3,0-6.1-0.5-9.9-0.5c-7.9,0-8.8,5.4-8.8,12.1v31.6c0,5.7,0,12.2,2.9,16.7h-17.4
	c2.8-4.5,2.8-11,2.8-16.7V191.7"/>
<path class="st1" d="M562.3,191.4c-0.4,2.9-0.6,5.7-0.6,8.6c0,14.2,6.6,27.9,23,27.9c7.7,0,15.3-3.1,19.1-7.2v1.7
	c0,8.1-13.2,15.6-24.9,15.6c-20.7,0-30.5-18.1-30.5-36.6c0-19.9,11.4-36.6,33-36.6c15.1,0,24.1,9.7,24.1,19.6c0,7-5.2,7-15,7
	L562.3,191.4 M579.7,186.8c7.7,0,11.8,0,11.8-5.8c0-6.4-5.1-11.6-11.5-11.7c-0.2,0-0.3,0-0.5,0c-10,0-14.2,9.3-16.1,17.5H579.7z"/>
<path class="st1" d="M419.6,342.3h18.9c9.8,0,19.9-2.3,27.3-8.7l-2.8,14.1c-4.3,0.3-9.5,0.8-15.1,0.8h-46c3.5-5.2,3.9-13.2,3.9-20.1
	v-57.6c0-6.9,0-14.9-3.5-20.1h55.4l0.6,11.8c-5.5-4.6-14-5.7-23.4-5.7h-15.4v36.6c12.1,0,25.7,0,37.8-1.1
	c-5.5,8.7-24.1,8.7-33.9,8.7h-3.9V342.3"/>
<path class="st1" d="M515.4,349.3c-1.4-5.6-1.3-9.5-2.5-9.5c-0.4,0-0.7,0.2-1,0.5c-4.1,5.8-7.4,10.6-18.5,10.6s-19.5-5.9-19.5-17
	c0-13.4,17.8-18.9,28.4-23.8c9-4.1,11.2-4.4,11.2-14.4c0-7.7-3-13.5-12.3-13.5c-15,0-8.8,14.7-19.1,14.7c-3.5,0-5.8-1.7-5.8-5.4
	c0-10.4,15.9-14,28.1-14c11.2,0,20.8,2.4,20.8,12.4v33.7c0,9-0.5,18.4,4.4,24.7L515.4,349.3 M499.4,342.3c9.5,0,14.2-8.3,14.2-17
	v-15.5l-8.6,4.1c-11.7,5.7-17.8,8.7-17.8,17.5C487.2,338.7,492.2,342.3,499.4,342.3"/>
<path class="st1" d="M587,328.9c0,14.5-14.5,21.9-27.9,21.9c-6,0-11.9-1.2-17.5-3.4c-1.7-0.6-2.7-1.2-2.7-3.4
	c0-3.7,0.6-7.4,0.8-11.2c4.9,7.7,8.8,12.4,19.2,12.4c9.3,0,14.8-4.3,14.8-13c0-18.7-31.2-15.6-31.2-38.3c0-11.5,9.1-16.4,24-16.4
	c4.8,0.1,9.6,0.7,14.3,1.8c0.5,0.2,2,0.5,2,1.4c0,2.8-0.2,7.2-0.3,10.4c-6.1-7.5-9.3-9-16.6-9c-6.2,0-11.8,2.8-11.8,9.3
	C554.2,309.8,587,307.7,587,328.9"/>
<path class="st1" d="M653.1,304.2c-0.4,2.8-0.6,5.7-0.6,8.6c0,14.2,6.6,27.9,23,27.9c7.8,0,15.3-3,19.1-7.2v1.7
	c0,8.1-13.3,15.6-24.9,15.6c-20.7,0-30.5-18.1-30.5-36.6c0-19.9,11.4-36.6,33-36.6c15.2,0,24.1,9.7,24.1,19.6c0,7.1-5.2,7.1-15,7.1
	L653.1,304.2 M670.3,299.6c7.7,0,11.8,0,11.8-5.8c0-6.4-5.1-11.6-11.5-11.6c-0.2,0-0.3,0-0.5,0c-9.9,0-14.2,9.3-16.1,17.5H670.3z"/>
<path class="st1" d="M711.3,304.6c0-10.9,0-21.5-4.1-24.7c5.8-0.1,11.3-0.8,13.2-0.8c2.8,0,1.1,7.7,2.8,7.7c0.8,0,6-9.2,15.3-9.2
	c5.5,0,8.7,2.1,8.7,5.8c0,2.9-1.5,5.1-5.5,5.1c-3,0-6.2-0.5-9.9-0.5c-7.9,0-8.8,5.4-8.8,12.1v31.6c0,5.7,0,12.3,2.8,16.7h-17.3
	c2.8-4.4,2.8-11,2.8-16.7V304.6"/>
<path class="st1" d="M770,279.1v5.4c0,1.2-0.2,2.5,0.9,2.5c1.4,0,8.4-9.4,20.7-9.4c11.8,0,19.2,5.7,19.2,19.9v34.3
	c0,5.7,0,12.3,2.5,16.6h-14.2v-42c0-9.8-1.4-20.5-14-20.5c-12.5,0-14.8,10.9-14.8,21.3v24.7c0,5.7,0,12.3,2.8,16.6h-17.4
	c2.8-4.3,2.8-10.9,2.8-16.6v-36.5c0-6.3,0-12.3-3.3-15.3L770,279.1"/>
<path class="st2" d="M306,198.7c0,0,0.3,15.1,22.8,6.3c6.2-2.4,15.5-5,20.4-3.9c1.8,0.4-3.9-4.8-19.9,1.5
	C312.8,209.2,306,198.7,306,198.7 M360,173.5c0,0,3.1-1.9,2.8-7.3c-0.1-3,0-5,0-5c0.7-0.2,1.3-0.5,1.9-1c1.2-1,1.9-2.1,1.1-3.9
	c-1-2-1.8,0.6-4.6,0s-7.5,0.5-5.7,1.7s5.5,3.2,5.5,3.2c0.3,1.8,0.4,3.6,0.3,5.4C361.3,168.9,360.9,171.3,360,173.5 M332,158.2
	l1.8-3.8c-2.1-1.3-4.4-2.1-6.8-2.4c-4.3-0.5-9.5,2.3-9.5,2.3s4.9-1,8.6,0.2C328.4,155.1,330.4,156.4,332,158.2 M310,264.4
	c3,3.9,14.3,10.7,15.2,3.3c-1,4.9-12-3.6-15.2-9.1c-3.3-5.6-3.5-10.6-5.6-11.2c-1.1-0.3-6.2,4.5-6.2,13.9c3.3-6.4,4.8-9.4,6.4-6
	C306.1,258.5,307.9,261.5,310,264.4 M278.2,259.1c6.4,10.7,15.9,11.2,17.3,11.2c-1.3,0-12.7-5.4-18.1-19c-1.6-3.8-2.8-7.7-3.7-11.7
	c-3-1.1-3.9,13.1-5.8,13.1s-7.3-4.8-12.5-16c-2-4.2-1.6-12.1-1.6-22.6c-3.1,12.8-2.5,19,0.9,28.4c3,8.3,12.4,16.9,14.3,16.9
	c3.5-0.1,1.3-11.4,4.4-10.2C273.4,249.3,274,252.3,278.2,259.1 M290,152.8c5-1.1,9.1,3.1,9.1,3.1c-1.5-4.1-5.6-6.5-9.9-5.7
	c-7.6,1.1-10.6,7.2-7.2,14.1s9.5,6.5,9.5,6.5s0,8.7,3,13.7c2.3,3.6,5,6.9,8,9.9c0,0-5.7-9.9-6.4-14.5c-0.5-3.9-0.8-7.8-0.8-11.8
	c0,0-7.6-0.8-9.5-5S283.7,154.3,290,152.8 M376.9,330c2.6,4.4,7.6,12,4.5,16.7s-14,2.2-23.9,1.1s-15.2,0.2-18.8,0.2
	s-5.7-2.6-7.6-5.7s-2.3-4-2.1-8s-0.4-1.7-4.9-11.9s-9.3-14.6-12.5-16.5s-2.7-3-2.3-4s1.7-3.1-1.3-10.1s-5.3-9.5-5.3-9.5
	c-5.5,4.7-20.1,8.4-20.1,8.4s0,4.4,2.7,17.3c2.3,11.1,6.6,20.7,8.3,21.4s7.3-2.5,11.7-2.4c7,0.2,7.2,5.7,8.8,12.8
	c1.5,6.9-0.4,9.1-4.9,8.7s-23.7-0.6-31.5-1c-7.8-0.4-6.3-1.9-8.9-4.9c-2.6-3-1.5-7.4-1.9-9.7c-0.4-2.3-8.2-15.9-10.1-18.8
	c-1.9-2.8-4-2.8-5.9-5.1s-0.9-4.9-0.4-7s-0.2-6.3-0.2-6.3s-5.7,0.3-11.4,0.3c-3.6,0-7.2-0.3-10.8-0.9c-3.9,3.4-8.4,6-13.3,7.8
	c-7.8,2.6-16.3,4.4-18.4,5.5s-0.6,3.6,1.7,10.6c1.4,4.2,3.5,8.2,6.3,11.6l5.7-1.9c4-1.3,7.4-1,9.3,0.4c3.6,2.8,6.5,12,6.1,16.5
	s-6.6,3-21.8,2.6s-17.3,0.4-19.7-0.4s-3.6-4-3.8-5.9s1-2.5-3.8-11.8s-4.2-10.9-8.3-13.6s-4.4-2.3-5-5.5c-1.2-6.8,3.8-7.6,8.9-9.9
	s7.6-8.1,7.6-8.1l-5.1,0.4c0,0-5.1,6.5-20.9,9.9c-15.8,3.4-25.1,5.7-31.6,10.5c-3.6,2.7-8.6,16.6-8.6,16.6c2.1-0.9,4.2-1.7,6.4-2.3
	c4.6-1.3,5.5,0,9.3,7.2c3.8,7.2,2.3,13.3-4.8,13.5c-7,0.2-5.9-2.2-19.3-1.3s-15.5,2.7-18.2-0.2c-2.1-2.2-1.5-6.5-1.5-9.4
	c0-3.7,2.5-5,4.3-8.7c1.1-2.2,4.7-9.8,7-14.6c2.6-5.3,4.2-11,4.7-16.9c0.3-2.4,4.9-6.1,8.7-5.7c8.1,0.8,12.5-5.9,15.8-10.1
	c2.5-3.4,4.7-6.8,6.8-10.4c-10.9,4.9-23,6-34.6,3.2c-19.4-4.8-23.1-22.7-16.4-33.3c5.4-8.7,18.9-14.6,32-16.4
	c15.2-2.1,24.4-1.7,25.9-5.3c0.7-1.6-3.1-7.7-1-14.5c1.9-6.3,5-8.5,9.7-13s4.2-8.4,4.2-8.4s10.4,18.8,4.7,29.4
	c-9.9,18.4-32.4,17.1-45.5,20.3S87.9,245,88,253c0.3,15.1,30.2,18.1,38.7,7.9c10.2-12.3,19-24.2,52.4-26c28.1-1.5,34.9,1.7,56-13.1
	c2.4-1.7,4.6-3.3,6.5-4.9c-0.6-4-0.4-9.4,1.2-16.3c2.5-10.6,8.7-20.1,8-20.9s-4.9,4.2-6.1,2.3s5-16.6,11-23.5
	c9.9-11.4,20.5-12.5,22-14.4c1.5-1.9-7.2-0.4-6.1-2.3c1.1-1.9,9.2-6.8,27.4-6.8c20.2,0,15.2,3.8,22,5.3s13.3,2.6,16.7,3.8
	s5,4.6,6.8,5.7s3,0.8,10.6,1.5s11,2.8,11.3,4.9c0.5,4.7,0,9.5-1.4,14c-1.4,4-6.4,4.6-6.4,4.6s-5.3,1.5-14.9-0.8s-12.5-2.3-12.5,8
	s2.3,9.5,13.7,9.5s14.1-4.9,16-4.9s1.9,2.3,1.9,6.1s-0.4,7.6-2.3,9.1s-8.2-0.3-8.2-0.3s3.7,5.1,4.3,8.4c3.4,20-10.2,33.1-12.1,32.9
	c-3.2-0.5-2.7-14-6.3-11.3c-1.6,1.2,0,9.3-4.8,16.6l1.1,9c0,0,2.5,23.2,9,44.2s12.7,25.6,14,27.7s4.9-0.8,10.1-2.3s6.5-1.1,9.1,3.2"
	/>
<path class="st2" d="M341.6,185.3c0,0,3.2-6.3,8.9-7.1s11,1.5,16-0.1c2-0.6,3.9-1.5,5.7-2.5c0,0-2.2,5.4-5.4,8
	c-4.3,3.5-8.3,2.9-16.5,0.9C347.4,183.8,344.4,184.1,341.6,185.3"/>
<rect x="46" y="116" class="st3" width="800" height="320"/>
</svg>
