<?xml version="1.0" encoding="UTF-8" standalone="no"?>
<!DOCTYPE svg PUBLIC "-//W3C//DTD SVG 1.1//EN" "http://www.w3.org/Graphics/SVG/1.1/DTD/svg11.dtd">
<svg xmlns="http://www.w3.org/2000/svg" version="1.1" viewBox="0 0 679 586">
<g stroke-width="2.00" fill="none" stroke-linecap="butt">
<path stroke="#92a3ca" vector-effect="non-scaling-stroke" d="
  M 257.25 144.46
  Q 241.59 168.01 241.17 195.76
  Q 241.02 205.83 243.08 215.63
  Q 248.48 241.23 266.70 260.81
  Q 278.00 272.96 286.06 279.44
  Q 301.22 291.61 321.96 296.50"
/>
<path stroke="#8ab8dd" vector-effect="non-scaling-stroke" d="
  M 321.96 296.50
  Q 339.32 300.78 356.96 298.29"
/>
<path stroke="#86c1e5" vector-effect="non-scaling-stroke" d="
  M 356.96 298.29
  Q 370.88 296.48 383.53 290.47"
/>
<path stroke="#82cbed" vector-effect="non-scaling-stroke" d="
  M 383.53 290.47
  Q 406.66 279.79 420.90 258.76"
/>
<path stroke="#80d2f3" vector-effect="non-scaling-stroke" d="
  M 420.90 258.76
  Q 428.73 247.90 432.81 234.56
  Q 442.28 203.59 431.42 173.53
  Q 425.01 155.79 412.25 141.96"
/>
<path stroke="#85c4e7" vector-effect="non-scaling-stroke" d="
  M 412.25 141.96
  Q 401.35 130.66 396.81 126.69
  Q 376.46 108.87 349.66 104.45
  Q 326.46 100.62 304.31 108.31
  Q 274.74 118.59 257.25 144.46"
/>
<path stroke="#089ade" vector-effect="non-scaling-stroke" d="
  M 412.25 141.96
  Q 409.36 143.12 410.00 146.50
  Q 410.80 150.69 408.24 154.16
  A 1.23 1.01 61.4 0 0 408.07 155.05
  Q 408.24 155.99 407.75 156.79"
/>
<path stroke="#85c4e7" vector-effect="non-scaling-stroke" d="
  M 407.75 156.79
  Q 404.96 153.31 402.25 149.76
  Q 401.86 149.26 401.31 149.24
  Q 400.75 149.22 401.11 149.71
  Q 416.02 169.87 416.50 193.50
  Q 417.25 230.45 391.60 255.24
  Q 384.21 262.38 375.76 267.38
  Q 354.05 280.23 328.25 278.25
  Q 306.12 276.55 287.30 263.19"
/>
<path stroke="#1a6bb5" vector-effect="non-scaling-stroke" d="
  M 287.30 263.19
  Q 288.21 262.09 288.25 261.21"
/>
<path stroke="#85c4e7" vector-effect="non-scaling-stroke" d="
  M 288.25 261.21
  Q 307.30 274.71 330.01 276.18
  Q 339.78 276.81 349.88 274.76
  Q 381.10 268.43 399.53 242.84
  Q 405.63 234.37 409.11 225.34
  Q 414.57 211.18 414.25 195.75
  Q 413.62 165.10 392.92 142.59
  Q 390.47 139.94 386.69 137.56
  Q 377.16 131.59 367.49 128.61"
/>
<path stroke="#1084cb" vector-effect="non-scaling-stroke" d="
  M 367.49 128.61
  Q 368.78 126.49 368.75 122.50
  Q 368.71 117.30 368.00 115.29"
/>
<path stroke="#85c4e7" vector-effect="non-scaling-stroke" d="
  M 368.00 115.29
  Q 379.11 118.37 390.31 124.69
  Q 391.02 125.08 391.28 124.78
  A 0.60 0.41 34.2 0 0 391.00 124.05
  Q 386.17 121.14 381.31 118.27
  Q 359.88 105.57 335.49 105.33
  Q 325.66 105.24 315.65 107.41
  Q 280.26 115.07 258.79 145.50"
/>
<path stroke="#1a6bb5" vector-effect="non-scaling-stroke" d="
  M 258.79 145.50
  Q 258.79 144.30 257.25 144.46"
/>
<path stroke="#06a1e4" vector-effect="non-scaling-stroke" d="
  M 420.90 258.76
  Q 420.34 256.31 420.24 253.75
  Q 420.16 251.85 420.11 249.95
  Q 420.09 249.18 420.34 246.19
  Q 420.61 242.89 419.38 239.78
  A 0.33 0.30 -34.0 0 0 418.86 239.70
  Q 418.19 240.33 417.83 239.26
  Q 417.75 239.03 417.81 238.74
  Q 418.09 237.47 417.00 238.71"
/>
<path stroke="#80d2f3" vector-effect="non-scaling-stroke" d="
  M 417.00 238.71
  Q 432.55 202.30 414.44 167.31
  Q 413.28 165.07 407.75 156.79"
/>
<path stroke="#82cbed" vector-effect="non-scaling-stroke" d="
  M 417.00 238.71
  Q 406.07 262.03 384.00 275.21"
/>
<path stroke="#86c1e5" vector-effect="non-scaling-stroke" d="
  M 384.00 275.21
  Q 370.49 282.68 355.25 285.21"
/>
<path stroke="#8ab8dd" vector-effect="non-scaling-stroke" d="
  M 355.25 285.21
  Q 338.43 287.56 322.00 283.29"
/>
<path stroke="#92a3ca" vector-effect="non-scaling-stroke" d="
  M 288.25 261.21
  Q 278.59 254.82 273.03 244.70
  Q 263.15 226.72 262.95 206.67
  Q 262.85 196.74 265.33 186.87
  Q 271.08 163.90 288.54 147.00"
/>
<path stroke="#88bce0" vector-effect="non-scaling-stroke" d="
  M 367.49 128.61
  Q 353.08 124.09 337.93 125.13"
/>
<path stroke="#186fb9" vector-effect="non-scaling-stroke" d="
  M 337.93 125.13
  Q 337.19 119.41 337.48 113.41
  A 0.73 0.65 -13.6 0 1 337.88 112.84
  Q 338.75 112.41 337.25 112.21"
/>
<path stroke="#92a3ca" vector-effect="non-scaling-stroke" d="
  M 287.30 263.19
  Q 302.01 277.71 322.00 283.29"
/>
<path stroke="#1f5eab" vector-effect="non-scaling-stroke" d="
  M 322.00 283.29
  L 322.99 284.98
  A 0.42 0.34 -22.6 0 1 322.70 285.50
  Q 321.96 285.73 321.98 286.75
  Q 322.03 291.63 321.96 296.50"
/>
<path stroke="#88bce0" vector-effect="non-scaling-stroke" d="
  M 368.00 115.29
  Q 352.93 110.89 337.25 112.21"
/>
<path stroke="#8dafd5" vector-effect="non-scaling-stroke" d="
  M 337.25 112.21
  Q 308.24 113.97 285.71 132.00"
/>
<path stroke="#92a3ca" vector-effect="non-scaling-stroke" d="
  M 285.71 132.00
  Q 251.08 159.63 249.75 203.50
  Q 249.26 219.64 255.03 236.48
  Q 256.46 240.67 258.58 244.70
  Q 260.68 248.67 263.05 252.49
  Q 263.95 253.95 262.81 253.33
  Q 262.58 253.20 262.40 252.97
  Q 245.37 230.68 243.25 204.00
  Q 240.75 172.54 258.79 145.50"
/>
<path stroke="#0c90d6" vector-effect="non-scaling-stroke" d="
  M 383.53 290.47
  Q 384.44 282.86 384.00 275.21"
/>
<path stroke="#137dc5" vector-effect="non-scaling-stroke" d="
  M 356.96 298.29
  Q 357.09 292.86 356.79 287.63
  Q 356.78 287.58 356.87 286.39
  Q 356.97 285.10 355.25 285.21"
/>
<path stroke="#8dafd5" vector-effect="non-scaling-stroke" d="
  M 337.93 125.13
  Q 309.46 127.63 288.54 147.00"
/>
<path stroke="#2256a3" vector-effect="non-scaling-stroke" d="
  M 288.54 147.00
  Q 288.71 145.65 288.00 146.25
  Q 286.70 146.39 287.00 144.75
  Q 287.57 141.64 286.81 135.25
  A 1.86 1.29 30.8 0 0 286.42 134.39
  Q 285.61 133.37 285.71 132.00"
/>
<path stroke="#878787" vector-effect="non-scaling-stroke" d="
  M 163.9655 375.4414
  A 22.06 22.06 0.0 0 0 141.9440 353.3429
  L 115.7641 353.2972
  A 22.06 22.06 0.0 0 0 93.6656 375.3187
  L 93.5745 427.5186
  A 22.06 22.06 0.0 0 0 115.5960 449.6171
  L 141.7759 449.6628
  A 22.06 22.06 0.0 0 0 163.8744 427.6413
  L 163.9655 375.4414"
/>
<path stroke="#878787" vector-effect="non-scaling-stroke" d="
  M 389.5437 354.7979
  A 0.27 0.27 0.0 0 0 389.2741 354.5274
  L 380.7742 354.5126
  A 0.27 0.27 0.0 0 0 380.5037 354.7821
  L 380.4763 370.4621
  A 0.27 0.27 0.0 0 0 380.7459 370.7326
  L 389.2458 370.7474
  A 0.27 0.27 0.0 0 0 389.5163 370.4779
  L 389.5437 354.7979"
/>
<path stroke="#878787" vector-effect="non-scaling-stroke" d="
  M 192.73 389.20
  L 191.46 380.67
  A 0.79 0.77 85.6 0 0 190.70 380.00
  L 186.16 380.00
  A 0.66 0.66 89.9 0 0 185.50 380.66
  L 185.50 447.67
  A 0.58 0.58 0.1 0 0 186.08 448.25
  L 194.09 448.25
  A 0.66 0.66 89.9 0 0 194.75 447.59
  Q 194.75 424.43 194.75 401.57
  Q 194.75 398.71 195.86 396.69
  Q 198.40 392.09 202.73 389.29
  Q 205.95 387.21 210.84 386.78
  Q 215.93 386.32 219.50 387.00
  Q 225.44 388.13 227.37 393.24
  Q 228.25 395.59 228.25 402.38
  Q 228.25 424.64 228.25 447.59
  A 0.61 0.59 90.0 0 0 228.84 448.20
  L 236.94 448.20
  A 0.52 0.50 90.0 0 0 237.44 447.68
  Q 237.48 423.21 237.75 398.75
  Q 237.82 392.45 241.60 389.29
  Q 244.06 387.23 249.43 386.83
  Q 255.91 386.35 261.50 387.00
  Q 267.41 387.68 269.72 392.23
  Q 270.99 394.72 271.04 400.98
  Q 271.23 424.04 271.25 447.63
  A 0.63 0.62 0.0 0 0 271.88 448.25
  L 279.82 448.25
  A 0.68 0.68 0.0 0 0 280.50 447.57
  Q 280.50 423.12 280.45 399.25
  Q 280.42 385.81 270.02 380.92
  Q 265.92 378.99 258.55 378.73
  Q 251.91 378.49 246.75 379.00
  Q 238.06 379.86 233.94 387.43
  Q 233.27 388.66 232.57 387.45
  Q 229.16 381.60 223.36 379.80
  Q 218.98 378.44 212.09 378.61
  Q 200.21 378.90 193.09 389.27
  Q 192.80 389.70 192.73 389.20"
/>
<path stroke="#bdbdbe" vector-effect="non-scaling-stroke" d="
  M 358.68 397.01
  Q 359.23 389.60 353.79 384.75"
/>
<path stroke="#878787" vector-effect="non-scaling-stroke" d="
  M 353.79 384.75
  Q 348.63 379.56 341.25 379.01
  Q 335.51 378.58 329.75 378.51
  Q 316.82 378.33 310.05 389.08
  Q 309.39 390.13 309.24 388.93
  L 308.21 381.06
  A 0.84 0.71 -86.8 0 0 307.71 380.40
  Q 305.04 379.56 302.29 380.19
  A 0.64 0.61 83.8 0 0 301.82 380.81
  L 301.94 447.74
  A 0.51 0.51 0.0 0 0 302.45 448.25
  L 310.75 448.25
  A 0.50 0.50 0.0 0 0 311.25 447.75
  Q 311.21 424.70 311.30 401.65
  Q 311.31 398.77 312.44 396.73
  Q 315.20 391.76 320.01 388.87
  Q 322.75 387.22 326.86 386.93
  Q 332.17 386.55 337.50 386.76
  Q 346.96 387.13 349.00 394.29
  Q 349.50 396.07 349.50 406.27
  Q 349.50 426.89 349.50 447.57
  A 0.67 0.66 89.6 0 0 350.17 448.24
  L 358.19 448.20
  A 0.51 0.50 -90.0 0 0 358.69 447.69
  L 358.68 397.01"
/>
<path stroke="#484848" vector-effect="non-scaling-stroke" d="
  M 353.79 384.75
  Q 357.56 390.33 358.68 397.01"
/>
<path stroke="#878787" vector-effect="non-scaling-stroke" d="
  M 496.61 388.15
  L 495.56 381.02
  A 1.19 1.19 85.8 0 0 494.38 380.00
  L 490.16 380.00
  A 0.66 0.66 0.0 0 0 489.50 380.66
  L 489.50 447.56
  A 0.69 0.69 0.0 0 0 490.19 448.25
  L 498.14 448.25
  A 0.61 0.61 0.0 0 0 498.75 447.64
  L 498.75 400.41
  Q 498.75 399.14 499.29 397.97
  Q 502.51 391.00 509.31 388.04
  Q 511.95 386.90 515.34 386.73
  Q 518.48 386.57 521.59 386.90
  Q 526.34 387.40 528.85 389.56
  Q 532.18 392.44 532.25 397.25
  Q 532.61 422.37 532.50 447.69
  A 0.56 0.55 90.0 0 0 533.05 448.25
  L 540.97 448.25
  A 0.78 0.78 0.0 0 0 541.75 447.47
  Q 541.75 422.63 541.74 399.00
  Q 541.74 387.37 553.26 386.92
  Q 564.15 386.50 566.50 387.00
  Q 572.99 388.37 574.63 394.78
  Q 575.25 397.22 575.25 401.75
  Q 575.25 424.75 575.25 447.38
  A 0.87 0.87 0.0 0 0 576.12 448.25
  L 583.94 448.25
  A 0.56 0.56 90.0 0 0 584.50 447.69
  Q 584.50 426.30 584.50 405.44
  Q 584.50 395.58 584.23 394.08
  Q 583.14 388.03 578.52 383.76
  Q 576.22 381.64 573.05 380.46
  Q 569.98 379.32 566.75 378.93
  Q 564.47 378.65 557.25 378.60
  Q 550.94 378.56 547.75 379.50
  Q 541.47 381.35 538.32 387.04
  Q 537.41 388.70 536.44 387.07
  Q 533.01 381.28 526.50 379.50
  Q 522.69 378.45 516.99 378.65
  Q 511.19 378.86 507.71 380.34
  Q 502.10 382.74 498.12 388.51
  Q 496.92 390.25 496.61 388.15"
/>
<path stroke="#878787" vector-effect="non-scaling-stroke" d="
  M 389.50 380.27
  A 0.26 0.26 0.0 0 0 389.24 380.01
  L 380.76 380.01
  A 0.26 0.26 0.0 0 0 380.50 380.27
  L 380.50 447.99
  A 0.26 0.26 0.0 0 0 380.76 448.25
  L 389.24 448.25
  A 0.26 0.26 0.0 0 0 389.50 447.99
  L 389.50 380.27"
/>
<path stroke="#878787" vector-effect="non-scaling-stroke" d="
  M 460.84 440.04
  L 461.74 446.96
  A 1.45 1.28 86.0 0 0 463.03 448.23
  L 467.43 448.21
  A 0.52 0.51 90.0 0 0 467.94 447.69
  L 468.06 380.55
  A 0.53 0.50 89.5 0 0 467.55 380.02
  L 459.19 380.15
  A 0.54 0.51 89.5 0 0 458.69 380.69
  Q 458.79 394.72 458.52 408.75
  Q 458.34 417.88 458.68 427.00
  Q 458.79 429.86 456.31 433.31
  Q 449.62 442.64 438.73 441.73
  Q 436.00 441.50 433.26 441.70
  Q 425.46 442.27 422.07 436.47
  Q 420.76 434.24 420.70 430.23
  Q 420.33 406.38 420.51 380.97
  A 0.91 0.89 -89.7 0 0 419.62 380.05
  L 411.94 380.00
  A 0.75 0.75 89.6 0 0 411.19 380.76
  Q 411.28 400.72 411.26 420.47
  Q 411.25 433.12 411.77 435.49
  Q 413.69 444.24 422.08 447.82
  Q 426.06 449.51 433.67 449.81
  Q 442.46 450.16 445.50 449.50
  Q 454.53 447.54 459.57 439.80
  Q 460.61 438.20 460.84 440.04"
/>
<path stroke="#c3c2c3" vector-effect="non-scaling-stroke" d="
  M 144.75 478.56
  A 0.78 0.78 0.0 0 0 143.97 477.78
  L 143.53 477.78
  A 0.78 0.78 0.0 0 0 142.75 478.56
  L 142.75 493.98
  A 0.78 0.78 0.0 0 0 143.53 494.76
  L 143.97 494.76
  A 0.78 0.78 0.0 0 0 144.75 493.98
  L 144.75 478.56"
/>
<path stroke="#c3c2c3" vector-effect="non-scaling-stroke" d="
  M 159.06 481.76
  L 164.99 493.86
  A 1.28 1.04 81.4 0 0 165.67 494.48
  Q 168.53 495.37 168.26 492.93
  Q 168.00 490.63 168.00 490.54
  Q 168.00 484.65 168.00 478.75
  A 1.07 0.80 -77.8 0 0 167.62 477.92
  Q 167.10 477.59 166.61 477.91
  A 1.10 0.74 79.1 0 0 166.25 478.75
  L 166.25 490.68
  Q 166.25 492.00 165.69 490.82
  L 160.22 479.31
  A 2.55 2.26 84.6 0 0 158.86 478.04
  Q 156.50 477.21 156.66 479.18
  Q 156.75 480.25 156.75 480.33
  Q 156.75 487.04 156.75 493.75
  A 1.15 0.84 -76.8 0 0 157.11 494.60
  Q 157.75 495.08 158.39 494.60
  A 1.21 0.84 78.0 0 0 158.75 493.74
  L 158.80 481.82
  Q 158.81 481.24 159.06 481.76"
/>
<path stroke="#c3c2c3" vector-effect="non-scaling-stroke" d="
  M 181.91 483.21
  Q 180.91 479.63 185.00 479.50
  Q 188.04 479.40 188.71 481.71
  A 1.17 0.89 89.2 0 0 189.27 482.42
  Q 190.98 483.16 190.44 481.06
  Q 189.58 477.76 186.26 477.63
  Q 184.18 477.54 182.76 477.90
  Q 180.74 478.39 180.00 480.50
  Q 178.76 484.03 182.06 485.69
  Q 182.75 486.03 186.03 487.05
  Q 188.18 487.72 188.80 488.88
  Q 189.67 490.52 188.31 492.37
  A 1.45 1.24 9.2 0 1 187.50 492.86
  Q 184.89 493.37 182.94 492.81
  Q 181.86 492.51 181.71 491.31
  A 1.58 0.94 -82.3 0 0 181.34 490.44
  Q 180.02 489.17 179.79 490.87
  Q 179.71 491.48 180.02 492.08
  Q 181.39 494.71 184.15 494.92
  Q 186.39 495.10 187.96 494.63
  Q 190.02 494.02 190.75 491.50
  Q 191.51 488.87 190.20 487.26
  Q 189.46 486.34 186.84 485.46
  Q 184.66 484.72 182.53 483.87
  A 1.05 0.96 4.5 0 1 181.91 483.21"
/>
<path stroke="#c7c7c7" vector-effect="non-scaling-stroke" d="
  M 204.69 494.31
  Q 207.18 495.45 210.10 494.87
  Q 211.99 494.49 212.99 493.43
  Q 214.21 492.13 214.19 490.19
  Q 214.12 483.23 214.45 480.27
  Q 214.85 476.83 212.44 478.01
  A 0.86 0.77 78.8 0 0 212.01 478.74
  L 211.82 490.38
  Q 211.79 492.49 209.57 492.81
  Q 205.62 493.38 204.72 491.49
  Q 204.62 491.28 204.33 487.49
  Q 203.89 481.58 204.25 479.75
  Q 204.77 477.15 202.94 478.01
  A 0.84 0.77 78.4 0 0 202.50 478.75
  Q 202.49 484.38 202.29 489.99
  Q 202.17 493.17 204.69 494.31"
/>
<path stroke="#c3c2c3" vector-effect="non-scaling-stroke" d="
  M 228.56 489.02
  L 232.58 489.12
  A 0.90 0.73 75.1 0 1 233.28 489.63
  Q 234.24 491.61 235.09 493.65
  Q 235.37 494.32 235.76 494.56
  Q 236.35 494.91 236.99 494.67
  A 0.50 0.49 66.7 0 0 237.26 493.98
  L 234.69 488.82
  A 0.43 0.38 57.1 0 1 234.76 488.34
  Q 237.13 486.12 237.10 483.47
  Q 237.07 481.41 236.39 479.95
  Q 235.53 478.09 233.02 477.84
  Q 229.92 477.54 226.67 477.83
  A 0.82 0.81 87.4 0 0 225.92 478.66
  Q 226.04 485.71 226.00 491.94
  Q 226.00 492.05 225.94 493.06
  Q 225.80 495.33 227.74 494.42
  A 0.83 0.65 80.1 0 0 228.13 493.69
  L 228.02 489.57
  A 0.54 0.53 90.0 0 1 228.56 489.02"
/>
<path stroke="#c3c2c3" vector-effect="non-scaling-stroke" d="
  M 257.61 491.78
  Q 257.83 492.41 258.25 493.75
  Q 258.70 495.21 259.99 494.67
  A 0.58 0.54 70.2 0 0 260.29 493.97
  Q 258.06 486.91 255.98 479.81
  Q 255.63 478.61 254.95 478.08
  Q 253.41 476.86 252.63 479.33
  Q 250.42 486.31 248.22 493.28
  Q 247.52 495.50 249.43 494.56
  A 1.79 1.79 -13.0 0 0 250.44 492.95
  Q 250.44 490.83 252.52 491.00
  Q 254.72 491.18 256.94 491.29
  A 0.74 0.72 -8.0 0 1 257.61 491.78"
/>
<path stroke="#c3c2c3" vector-effect="non-scaling-stroke" d="
  M 280.27 490.61
  Q 277.75 485.66 275.45 480.52
  Q 274.60 478.62 274.51 478.51
  Q 273.74 477.64 272.00 478.04
  A 0.64 0.63 -6.2 0 0 271.50 478.66
  Q 271.50 486.00 271.50 493.00
  Q 271.50 495.14 272.98 494.63
  A 0.76 0.68 82.6 0 0 273.45 493.94
  Q 273.55 488.22 273.56 482.50
  Q 273.56 481.82 273.89 481.79
  A 0.87 0.45 70.8 0 1 274.50 482.37
  Q 276.79 487.85 279.13 493.30
  Q 279.80 494.86 281.94 494.72
  A 0.97 0.91 87.8 0 0 282.79 493.75
  L 282.66 478.81
  A 0.90 0.68 -80.6 0 0 282.26 478.05
  Q 281.56 477.72 281.10 478.19
  Q 280.74 478.57 280.81 479.42
  Q 281.31 484.96 280.75 490.52
  Q 280.66 491.37 280.27 490.61"
/>
<path stroke="#bdbdbe" vector-effect="non-scaling-stroke" d="
  M 303.62 480.52
  L 304.08 482.08
  A 1.10 0.73 84.1 0 0 304.64 482.76
  Q 305.32 482.99 305.67 482.61
  Q 306.01 482.24 305.82 481.47
  Q 304.95 478.00 300.75 477.75
  Q 297.93 477.58 296.20 478.86
  Q 294.74 479.95 294.56 482.70
  Q 294.27 487.23 294.75 491.76
  Q 294.95 493.69 296.80 494.26
  Q 299.35 495.05 302.09 494.68
  Q 303.66 494.47 304.51 493.58
  Q 305.51 492.53 305.71 491.00
  A 1.00 0.81 -70.5 0 0 305.41 490.15
  Q 304.85 489.71 304.34 490.13
  A 1.39 0.63 88.2 0 0 303.98 491.00
  Q 303.86 491.96 303.19 492.55
  Q 302.69 493.00 301.67 493.00
  Q 300.08 493.00 298.49 493.00
  Q 296.50 493.00 296.47 491.17
  L 296.31 481.90
  A 2.46 2.26 -14.2 0 1 297.72 479.75
  Q 300.05 478.64 302.98 479.86
  A 1.17 0.98 6.1 0 1 303.62 480.52"
/>
<path stroke="#bdbdbe" vector-effect="non-scaling-stroke" d="
  M 356.65 492.22
  L 356.19 490.97
  A 1.25 1.13 88.8 0 0 355.55 490.29
  Q 353.77 489.55 354.25 491.50
  Q 354.88 494.06 357.28 494.61
  Q 358.89 494.98 361.24 494.81
  Q 365.77 494.46 365.51 489.29
  Q 365.39 486.72 362.52 485.75
  L 357.01 483.90
  A 1.05 0.87 88.4 0 1 356.41 483.22
  Q 355.30 479.26 360.72 479.57
  A 1.80 1.80 73.7 0 1 362.07 480.31
  Q 364.03 483.02 364.78 481.95
  A 1.03 0.77 55.6 0 0 364.82 481.04
  Q 362.90 476.53 357.66 477.84
  Q 353.75 478.81 354.58 483.46
  A 2.74 2.43 -87.6 0 0 356.25 485.51
  L 361.96 487.43
  A 1.75 1.02 2.7 0 1 362.75 487.94
  Q 364.68 490.44 362.56 492.59
  A 1.33 0.92 -59.3 0 1 361.69 492.99
  L 357.31 492.79
  A 0.87 0.67 78.5 0 1 356.65 492.22"
/>
<path stroke="#c3c2c3" vector-effect="non-scaling-stroke" d="
  M 388.2647 482.1301
  A 4.36 4.36 0.0 0 0 383.9199 477.7549
  L 381.1400 477.7452
  A 4.36 4.36 0.0 0 0 376.7648 482.0900
  L 376.7353 490.5299
  A 4.36 4.36 0.0 0 0 381.0801 494.9051
  L 383.8600 494.9148
  A 4.36 4.36 0.0 0 0 388.2352 490.5700
  L 388.2647 482.1301"
/>
<path stroke="#c3c2c3" vector-effect="non-scaling-stroke" d="
  M 400.22 494.53
  Q 403.97 495.03 407.53 494.57
  Q 407.86 494.52 408.50 494.51
  Q 410.06 494.46 409.13 493.57
  A 1.35 1.33 67.9 0 0 408.25 493.19
  L 402.79 492.99
  A 0.81 0.74 1.5 0 1 402.01 492.24
  L 402.07 478.33
  A 0.58 0.57 89.5 0 0 401.49 477.75
  Q 399.40 477.78 399.68 479.45
  Q 399.97 481.15 399.97 481.21
  Q 400.16 487.50 399.74 493.95
  A 0.55 0.54 6.1 0 0 400.22 494.53"
/>
<path stroke="#c7c7c7" vector-effect="non-scaling-stroke" d="
  M 423.39 494.63
  Q 426.29 495.70 429.12 494.50
  Q 431.76 493.38 431.75 490.56
  L 431.70 478.81
  A 0.90 0.74 -80.4 0 0 431.27 478.05
  Q 430.61 477.74 430.13 478.17
  A 1.26 0.83 75.5 0 0 429.83 479.06
  Q 429.97 483.85 429.78 488.63
  Q 429.77 488.71 429.80 489.87
  Q 429.86 492.67 426.75 493.00
  Q 422.88 493.41 422.29 490.80
  Q 422.26 490.69 422.26 486.68
  Q 422.25 482.55 422.08 478.43
  A 0.60 0.56 -89.0 0 0 421.56 477.86
  Q 420.88 477.81 420.24 478.08
  A 0.85 0.73 80.4 0 0 419.80 478.81
  Q 419.71 483.65 419.74 488.50
  Q 419.76 490.57 420.63 492.26
  Q 421.50 493.93 423.39 494.63"
/>
<path stroke="#c3c2c3" vector-effect="non-scaling-stroke" d="
  M 446.69 480.06
  L 446.75 493.75
  A 1.23 0.82 -77.9 0 0 447.09 494.60
  Q 447.65 495.04 448.16 494.62
  A 1.26 0.81 78.6 0 0 448.50 493.75
  L 448.55 480.06
  A 0.65 0.65 83.6 0 1 449.04 479.44
  Q 450.49 479.08 452.00 479.07
  Q 453.47 479.05 452.87 478.34
  A 1.37 1.02 -12.6 0 0 452.01 477.96
  Q 447.88 477.69 443.75 477.95
  Q 441.20 478.12 442.83 479.24
  A 1.88 1.18 -16.9 0 0 443.75 479.49
  L 446.18 479.53
  A 0.53 0.52 -89.4 0 1 446.69 480.06"
/>
<path stroke="#c7c7c7" vector-effect="non-scaling-stroke" d="
  M 466.2370 478.7980
  A 1.02 1.02 0.0 0 0 465.2152 477.7798
  L 464.9952 477.7802
  A 1.02 1.02 0.0 0 0 463.9770 478.8020
  L 464.0030 493.7420
  A 1.02 1.02 0.0 0 0 465.0248 494.7602
  L 465.2448 494.7598
  A 1.02 1.02 0.0 0 0 466.2630 493.7380
  L 466.2370 478.7980"
/>
<path stroke="#bdbdbe" vector-effect="non-scaling-stroke" d="
  M 489.3658 482.2398
  A 4.47 4.47 0.0 0 0 484.8802 477.7854
  L 482.2202 477.7947
  A 4.47 4.47 0.0 0 0 477.7658 482.2803
  L 477.7942 490.4202
  A 4.47 4.47 0.0 0 0 482.2798 494.8746
  L 484.9398 494.8653
  A 4.47 4.47 0.0 0 0 489.3942 490.3797
  L 489.3658 482.2398"
/>
<path stroke="#c3c2c3" vector-effect="non-scaling-stroke" d="
  M 502.85 482.41
  Q 502.74 480.01 503.80 482.17
  Q 506.43 487.49 508.80 492.92
  Q 509.30 494.08 509.90 494.46
  Q 510.83 495.05 511.98 494.63
  A 0.74 0.69 81.2 0 0 512.45 493.94
  L 512.45 478.56
  A 0.72 0.68 -81.8 0 0 511.97 477.88
  Q 510.31 477.36 510.36 479.50
  Q 510.50 485.00 510.50 490.14
  Q 510.50 492.00 509.69 490.32
  Q 507.32 485.39 505.04 480.43
  Q 505.02 480.38 504.67 479.42
  Q 504.09 477.84 502.24 477.75
  A 0.94 0.94 1.1 0 0 501.25 478.70
  Q 501.29 485.33 501.20 491.91
  Q 501.19 492.27 501.01 493.43
  Q 500.74 495.12 502.37 494.68
  A 1.30 1.29 81.3 0 0 503.32 493.38
  L 502.85 482.41"
/>
<path stroke="#c3c2c3" vector-effect="non-scaling-stroke" d="
  M 526.74 492.19
  Q 526.30 489.90 524.22 490.37
  A 0.50 0.47 75.4 0 0 523.88 490.99
  Q 524.93 494.59 528.25 494.90
  Q 530.61 495.12 532.36 494.60
  Q 534.71 493.89 535.21 490.99
  Q 535.90 486.98 530.47 485.15
  Q 529.28 484.75 528.03 484.64
  Q 525.20 484.38 526.34 480.72
  A 1.22 1.19 85.2 0 1 526.93 480.01
  Q 529.89 478.44 532.32 480.48
  A 1.50 1.02 -82.6 0 1 532.74 481.31
  Q 533.00 483.04 534.28 482.24
  A 0.90 0.84 72.8 0 0 534.67 481.43
  Q 534.44 478.40 531.44 477.81
  Q 529.72 477.47 527.79 477.85
  Q 525.79 478.24 524.84 479.63
  Q 523.60 481.44 524.42 483.59
  Q 524.96 485.02 526.68 485.78
  Q 528.21 486.45 529.81 486.91
  Q 532.07 487.55 532.78 488.31
  Q 534.26 489.89 532.84 492.15
  A 1.33 1.27 6.9 0 1 532.09 492.71
  Q 529.71 493.39 527.29 492.81
  A 0.81 0.69 89.1 0 1 526.74 492.19"
/>
<path stroke="#bdbdbe" vector-effect="non-scaling-stroke" d="
  M 319.29 492.44
  L 319.26 488.45
  A 1.29 1.22 0.0 0 1 320.55 487.23
  L 324.68 487.21
  A 0.93 0.70 8.7 0 0 325.48 486.78
  Q 325.61 486.48 325.51 486.18
  A 0.89 0.58 -4.6 0 0 324.75 485.77
  L 319.93 485.61
  A 0.56 0.56 0.0 0 1 319.38 485.06
  L 319.28 479.81
  A 0.56 0.50 -1.7 0 1 319.82 479.30
  Q 323.16 479.19 326.49 479.03
  Q 328.27 478.94 327.06 478.18
  Q 326.77 478.00 326.40 478.00
  Q 322.33 478.00 318.25 478.00
  A 0.50 0.50 0.0 0 0 317.75 478.50
  L 317.81 493.94
  A 0.51 0.50 90.0 0 0 318.31 494.45
  L 326.93 494.45
  A 0.74 0.62 5.3 0 0 327.63 493.96
  Q 327.83 493.07 326.25 493.25
  Q 323.58 493.56 319.80 493.01
  A 0.59 0.57 4.0 0 1 319.29 492.44"
/>
<path stroke="#525252" vector-effect="non-scaling-stroke" d="
  M 153.79 388.00
  Q 154.55 385.31 154.20 382.51
  Q 153.91 380.16 154.03 377.82
  Q 154.21 374.39 153.97 373.18
  Q 152.84 367.38 147.57 363.64"
/>
<path stroke="#878787" vector-effect="non-scaling-stroke" d="
  M 147.57 363.64
  Q 135.64 361.35 118.75 362.00
  Q 108.72 362.38 105.06 369.86
  Q 103.75 372.52 103.75 377.38
  Q 103.75 401.56 103.75 425.75
  Q 103.75 435.50 111.18 439.28
  Q 113.22 440.31 115.97 440.74
  Q 118.46 441.13 121.00 441.10
  Q 128.00 441.00 135.00 441.18
  Q 140.37 441.33 144.50 440.00
  Q 150.51 438.07 152.64 432.90
  Q 153.74 430.24 153.80 422.94
  Q 153.96 405.47 153.79 388.00"
/>
<path stroke="#c7c7c7" vector-effect="non-scaling-stroke" d="
  M 147.57 363.64
  Q 153.79 370.16 153.75 376.75
  Q 153.72 382.38 153.79 388.00"
/>
<path stroke="#c3c2c3" vector-effect="non-scaling-stroke" d="
  M 234.7792 480.6419
  A 1.05 1.05 0.0 0 0 233.7329 479.5883
  L 229.0129 479.5718
  A 1.05 1.05 0.0 0 0 227.9592 480.6181
  L 227.9408 485.8981
  A 1.05 1.05 0.0 0 0 228.9871 486.9517
  L 233.7071 486.9682
  A 1.05 1.05 0.0 0 0 234.7608 485.9219
  L 234.7792 480.6419"
/>
<path stroke="#c3c2c3" vector-effect="non-scaling-stroke" d="
  M 253.69 481.42
  L 251.48 488.81
  A 0.53 0.52 -81.3 0 0 251.97 489.50
  L 256.51 489.50
  A 0.40 0.40 81.4 0 0 256.89 488.98
  L 254.54 481.39
  Q 254.12 480.01 253.69 481.42"
/>
<path stroke="#c3c2c3" vector-effect="non-scaling-stroke" d="
  M 386.5229 482.1120
  A 2.70 2.70 0.0 0 0 383.8513 479.3839
  L 381.2715 479.3569
  A 2.70 2.70 0.0 0 0 378.5434 482.0284
  L 378.4571 490.2680
  A 2.70 2.70 0.0 0 0 381.1287 492.9961
  L 383.7085 493.0231
  A 2.70 2.70 0.0 0 0 386.4366 490.3516
  L 386.5229 482.1120"
/>
<path stroke="#bdbdbe" vector-effect="non-scaling-stroke" d="
  M 487.4827 482.0831
  A 2.74 2.74 0.0 0 0 484.7379 479.3479
  L 482.2979 479.3521
  A 2.74 2.74 0.0 0 0 479.5627 482.0969
  L 479.5773 490.4369
  A 2.74 2.74 0.0 0 0 482.3221 493.1721
  L 484.7621 493.1679
  A 2.74 2.74 0.0 0 0 487.4973 490.4231
  L 487.4827 482.0831"
/>
</g>
<path fill="#fcfcfc" d="
  M 0.00 0.00
  L 679.00 0.00
  L 679.00 586.00
  L 0.00 586.00
  L 0.00 0.00
  Z
  M 257.25 144.46
  Q 241.59 168.01 241.17 195.76
  Q 241.02 205.83 243.08 215.63
  Q 248.48 241.23 266.70 260.81
  Q 278.00 272.96 286.06 279.44
  Q 301.22 291.61 321.96 296.50
  Q 339.32 300.78 356.96 298.29
  Q 370.88 296.48 383.53 290.47
  Q 406.66 279.79 420.90 258.76
  Q 428.73 247.90 432.81 234.56
  Q 442.28 203.59 431.42 173.53
  Q 425.01 155.79 412.25 141.96
  Q 401.35 130.66 396.81 126.69
  Q 376.46 108.87 349.66 104.45
  Q 326.46 100.62 304.31 108.31
  Q 274.74 118.59 257.25 144.46
  Z
  M 163.9655 375.4414
  A 22.06 22.06 0.0 0 0 141.9440 353.3429
  L 115.7641 353.2972
  A 22.06 22.06 0.0 0 0 93.6656 375.3187
  L 93.5745 427.5186
  A 22.06 22.06 0.0 0 0 115.5960 449.6171
  L 141.7759 449.6628
  A 22.06 22.06 0.0 0 0 163.8744 427.6413
  L 163.9655 375.4414
  Z
  M 389.5437 354.7979
  A 0.27 0.27 0.0 0 0 389.2741 354.5274
  L 380.7742 354.5126
  A 0.27 0.27 0.0 0 0 380.5037 354.7821
  L 380.4763 370.4621
  A 0.27 0.27 0.0 0 0 380.7459 370.7326
  L 389.2458 370.7474
  A 0.27 0.27 0.0 0 0 389.5163 370.4779
  L 389.5437 354.7979
  Z
  M 192.73 389.20
  L 191.46 380.67
  A 0.79 0.77 85.6 0 0 190.70 380.00
  L 186.16 380.00
  A 0.66 0.66 89.9 0 0 185.50 380.66
  L 185.50 447.67
  A 0.58 0.58 0.1 0 0 186.08 448.25
  L 194.09 448.25
  A 0.66 0.66 89.9 0 0 194.75 447.59
  Q 194.75 424.43 194.75 401.57
  Q 194.75 398.71 195.86 396.69
  Q 198.40 392.09 202.73 389.29
  Q 205.95 387.21 210.84 386.78
  Q 215.93 386.32 219.50 387.00
  Q 225.44 388.13 227.37 393.24
  Q 228.25 395.59 228.25 402.38
  Q 228.25 424.64 228.25 447.59
  A 0.61 0.59 90.0 0 0 228.84 448.20
  L 236.94 448.20
  A 0.52 0.50 90.0 0 0 237.44 447.68
  Q 237.48 423.21 237.75 398.75
  Q 237.82 392.45 241.60 389.29
  Q 244.06 387.23 249.43 386.83
  Q 255.91 386.35 261.50 387.00
  Q 267.41 387.68 269.72 392.23
  Q 270.99 394.72 271.04 400.98
  Q 271.23 424.04 271.25 447.63
  A 0.63 0.62 0.0 0 0 271.88 448.25
  L 279.82 448.25
  A 0.68 0.68 0.0 0 0 280.50 447.57
  Q 280.50 423.12 280.45 399.25
  Q 280.42 385.81 270.02 380.92
  Q 265.92 378.99 258.55 378.73
  Q 251.91 378.49 246.75 379.00
  Q 238.06 379.86 233.94 387.43
  Q 233.27 388.66 232.57 387.45
  Q 229.16 381.60 223.36 379.80
  Q 218.98 378.44 212.09 378.61
  Q 200.21 378.90 193.09 389.27
  Q 192.80 389.70 192.73 389.20
  Z
  M 358.68 397.01
  Q 359.23 389.60 353.79 384.75
  Q 348.63 379.56 341.25 379.01
  Q 335.51 378.58 329.75 378.51
  Q 316.82 378.33 310.05 389.08
  Q 309.39 390.13 309.24 388.93
  L 308.21 381.06
  A 0.84 0.71 -86.8 0 0 307.71 380.40
  Q 305.04 379.56 302.29 380.19
  A 0.64 0.61 83.8 0 0 301.82 380.81
  L 301.94 447.74
  A 0.51 0.51 0.0 0 0 302.45 448.25
  L 310.75 448.25
  A 0.50 0.50 0.0 0 0 311.25 447.75
  Q 311.21 424.70 311.30 401.65
  Q 311.31 398.77 312.44 396.73
  Q 315.20 391.76 320.01 388.87
  Q 322.75 387.22 326.86 386.93
  Q 332.17 386.55 337.50 386.76
  Q 346.96 387.13 349.00 394.29
  Q 349.50 396.07 349.50 406.27
  Q 349.50 426.89 349.50 447.57
  A 0.67 0.66 89.6 0 0 350.17 448.24
  L 358.19 448.20
  A 0.51 0.50 -90.0 0 0 358.69 447.69
  L 358.68 397.01
  Z
  M 496.61 388.15
  L 495.56 381.02
  A 1.19 1.19 85.8 0 0 494.38 380.00
  L 490.16 380.00
  A 0.66 0.66 0.0 0 0 489.50 380.66
  L 489.50 447.56
  A 0.69 0.69 0.0 0 0 490.19 448.25
  L 498.14 448.25
  A 0.61 0.61 0.0 0 0 498.75 447.64
  L 498.75 400.41
  Q 498.75 399.14 499.29 397.97
  Q 502.51 391.00 509.31 388.04
  Q 511.95 386.90 515.34 386.73
  Q 518.48 386.57 521.59 386.90
  Q 526.34 387.40 528.85 389.56
  Q 532.18 392.44 532.25 397.25
  Q 532.61 422.37 532.50 447.69
  A 0.56 0.55 90.0 0 0 533.05 448.25
  L 540.97 448.25
  A 0.78 0.78 0.0 0 0 541.75 447.47
  Q 541.75 422.63 541.74 399.00
  Q 541.74 387.37 553.26 386.92
  Q 564.15 386.50 566.50 387.00
  Q 572.99 388.37 574.63 394.78
  Q 575.25 397.22 575.25 401.75
  Q 575.25 424.75 575.25 447.38
  A 0.87 0.87 0.0 0 0 576.12 448.25
  L 583.94 448.25
  A 0.56 0.56 90.0 0 0 584.50 447.69
  Q 584.50 426.30 584.50 405.44
  Q 584.50 395.58 584.23 394.08
  Q 583.14 388.03 578.52 383.76
  Q 576.22 381.64 573.05 380.46
  Q 569.98 379.32 566.75 378.93
  Q 564.47 378.65 557.25 378.60
  Q 550.94 378.56 547.75 379.50
  Q 541.47 381.35 538.32 387.04
  Q 537.41 388.70 536.44 387.07
  Q 533.01 381.28 526.50 379.50
  Q 522.69 378.45 516.99 378.65
  Q 511.19 378.86 507.71 380.34
  Q 502.10 382.74 498.12 388.51
  Q 496.92 390.25 496.61 388.15
  Z
  M 389.50 380.27
  A 0.26 0.26 0.0 0 0 389.24 380.01
  L 380.76 380.01
  A 0.26 0.26 0.0 0 0 380.50 380.27
  L 380.50 447.99
  A 0.26 0.26 0.0 0 0 380.76 448.25
  L 389.24 448.25
  A 0.26 0.26 0.0 0 0 389.50 447.99
  L 389.50 380.27
  Z
  M 460.84 440.04
  L 461.74 446.96
  A 1.45 1.28 86.0 0 0 463.03 448.23
  L 467.43 448.21
  A 0.52 0.51 90.0 0 0 467.94 447.69
  L 468.06 380.55
  A 0.53 0.50 89.5 0 0 467.55 380.02
  L 459.19 380.15
  A 0.54 0.51 89.5 0 0 458.69 380.69
  Q 458.79 394.72 458.52 408.75
  Q 458.34 417.88 458.68 427.00
  Q 458.79 429.86 456.31 433.31
  Q 449.62 442.64 438.73 441.73
  Q 436.00 441.50 433.26 441.70
  Q 425.46 442.27 422.07 436.47
  Q 420.76 434.24 420.70 430.23
  Q 420.33 406.38 420.51 380.97
  A 0.91 0.89 -89.7 0 0 419.62 380.05
  L 411.94 380.00
  A 0.75 0.75 89.6 0 0 411.19 380.76
  Q 411.28 400.72 411.26 420.47
  Q 411.25 433.12 411.77 435.49
  Q 413.69 444.24 422.08 447.82
  Q 426.06 449.51 433.67 449.81
  Q 442.46 450.16 445.50 449.50
  Q 454.53 447.54 459.57 439.80
  Q 460.61 438.20 460.84 440.04
  Z
  M 144.75 478.56
  A 0.78 0.78 0.0 0 0 143.97 477.78
  L 143.53 477.78
  A 0.78 0.78 0.0 0 0 142.75 478.56
  L 142.75 493.98
  A 0.78 0.78 0.0 0 0 143.53 494.76
  L 143.97 494.76
  A 0.78 0.78 0.0 0 0 144.75 493.98
  L 144.75 478.56
  Z
  M 159.06 481.76
  L 164.99 493.86
  A 1.28 1.04 81.4 0 0 165.67 494.48
  Q 168.53 495.37 168.26 492.93
  Q 168.00 490.63 168.00 490.54
  Q 168.00 484.65 168.00 478.75
  A 1.07 0.80 -77.8 0 0 167.62 477.92
  Q 167.10 477.59 166.61 477.91
  A 1.10 0.74 79.1 0 0 166.25 478.75
  L 166.25 490.68
  Q 166.25 492.00 165.69 490.82
  L 160.22 479.31
  A 2.55 2.26 84.6 0 0 158.86 478.04
  Q 156.50 477.21 156.66 479.18
  Q 156.75 480.25 156.75 480.33
  Q 156.75 487.04 156.75 493.75
  A 1.15 0.84 -76.8 0 0 157.11 494.60
  Q 157.75 495.08 158.39 494.60
  A 1.21 0.84 78.0 0 0 158.75 493.74
  L 158.80 481.82
  Q 158.81 481.24 159.06 481.76
  Z
  M 181.91 483.21
  Q 180.91 479.63 185.00 479.50
  Q 188.04 479.40 188.71 481.71
  A 1.17 0.89 89.2 0 0 189.27 482.42
  Q 190.98 483.16 190.44 481.06
  Q 189.58 477.76 186.26 477.63
  Q 184.18 477.54 182.76 477.90
  Q 180.74 478.39 180.00 480.50
  Q 178.76 484.03 182.06 485.69
  Q 182.75 486.03 186.03 487.05
  Q 188.18 487.72 188.80 488.88
  Q 189.67 490.52 188.31 492.37
  A 1.45 1.24 9.2 0 1 187.50 492.86
  Q 184.89 493.37 182.94 492.81
  Q 181.86 492.51 181.71 491.31
  A 1.58 0.94 -82.3 0 0 181.34 490.44
  Q 180.02 489.17 179.79 490.87
  Q 179.71 491.48 180.02 492.08
  Q 181.39 494.71 184.15 494.92
  Q 186.39 495.10 187.96 494.63
  Q 190.02 494.02 190.75 491.50
  Q 191.51 488.87 190.20 487.26
  Q 189.46 486.34 186.84 485.46
  Q 184.66 484.72 182.53 483.87
  A 1.05 0.96 4.5 0 1 181.91 483.21
  Z
  M 204.69 494.31
  Q 207.18 495.45 210.10 494.87
  Q 211.99 494.49 212.99 493.43
  Q 214.21 492.13 214.19 490.19
  Q 214.12 483.23 214.45 480.27
  Q 214.85 476.83 212.44 478.01
  A 0.86 0.77 78.8 0 0 212.01 478.74
  L 211.82 490.38
  Q 211.79 492.49 209.57 492.81
  Q 205.62 493.38 204.72 491.49
  Q 204.62 491.28 204.33 487.49
  Q 203.89 481.58 204.25 479.75
  Q 204.77 477.15 202.94 478.01
  A 0.84 0.77 78.4 0 0 202.50 478.75
  Q 202.49 484.38 202.29 489.99
  Q 202.17 493.17 204.69 494.31
  Z
  M 228.56 489.02
  L 232.58 489.12
  A 0.90 0.73 75.1 0 1 233.28 489.63
  Q 234.24 491.61 235.09 493.65
  Q 235.37 494.32 235.76 494.56
  Q 236.35 494.91 236.99 494.67
  A 0.50 0.49 66.7 0 0 237.26 493.98
  L 234.69 488.82
  A 0.43 0.38 57.1 0 1 234.76 488.34
  Q 237.13 486.12 237.10 483.47
  Q 237.07 481.41 236.39 479.95
  Q 235.53 478.09 233.02 477.84
  Q 229.92 477.54 226.67 477.83
  A 0.82 0.81 87.4 0 0 225.92 478.66
  Q 226.04 485.71 226.00 491.94
  Q 226.00 492.05 225.94 493.06
  Q 225.80 495.33 227.74 494.42
  A 0.83 0.65 80.1 0 0 228.13 493.69
  L 228.02 489.57
  A 0.54 0.53 90.0 0 1 228.56 489.02
  Z
  M 257.61 491.78
  Q 257.83 492.41 258.25 493.75
  Q 258.70 495.21 259.99 494.67
  A 0.58 0.54 70.2 0 0 260.29 493.97
  Q 258.06 486.91 255.98 479.81
  Q 255.63 478.61 254.95 478.08
  Q 253.41 476.86 252.63 479.33
  Q 250.42 486.31 248.22 493.28
  Q 247.52 495.50 249.43 494.56
  A 1.79 1.79 -13.0 0 0 250.44 492.95
  Q 250.44 490.83 252.52 491.00
  Q 254.72 491.18 256.94 491.29
  A 0.74 0.72 -8.0 0 1 257.61 491.78
  Z
  M 280.27 490.61
  Q 277.75 485.66 275.45 480.52
  Q 274.60 478.62 274.51 478.51
  Q 273.74 477.64 272.00 478.04
  A 0.64 0.63 -6.2 0 0 271.50 478.66
  Q 271.50 486.00 271.50 493.00
  Q 271.50 495.14 272.98 494.63
  A 0.76 0.68 82.6 0 0 273.45 493.94
  Q 273.55 488.22 273.56 482.50
  Q 273.56 481.82 273.89 481.79
  A 0.87 0.45 70.8 0 1 274.50 482.37
  Q 276.79 487.85 279.13 493.30
  Q 279.80 494.86 281.94 494.72
  A 0.97 0.91 87.8 0 0 282.79 493.75
  L 282.66 478.81
  A 0.90 0.68 -80.6 0 0 282.26 478.05
  Q 281.56 477.72 281.10 478.19
  Q 280.74 478.57 280.81 479.42
  Q 281.31 484.96 280.75 490.52
  Q 280.66 491.37 280.27 490.61
  Z
  M 303.62 480.52
  L 304.08 482.08
  A 1.10 0.73 84.1 0 0 304.64 482.76
  Q 305.32 482.99 305.67 482.61
  Q 306.01 482.24 305.82 481.47
  Q 304.95 478.00 300.75 477.75
  Q 297.93 477.58 296.20 478.86
  Q 294.74 479.95 294.56 482.70
  Q 294.27 487.23 294.75 491.76
  Q 294.95 493.69 296.80 494.26
  Q 299.35 495.05 302.09 494.68
  Q 303.66 494.47 304.51 493.58
  Q 305.51 492.53 305.71 491.00
  A 1.00 0.81 -70.5 0 0 305.41 490.15
  Q 304.85 489.71 304.34 490.13
  A 1.39 0.63 88.2 0 0 303.98 491.00
  Q 303.86 491.96 303.19 492.55
  Q 302.69 493.00 301.67 493.00
  Q 300.08 493.00 298.49 493.00
  Q 296.50 493.00 296.47 491.17
  L 296.31 481.90
  A 2.46 2.26 -14.2 0 1 297.72 479.75
  Q 300.05 478.64 302.98 479.86
  A 1.17 0.98 6.1 0 1 303.62 480.52
  Z
  M 356.65 492.22
  L 356.19 490.97
  A 1.25 1.13 88.8 0 0 355.55 490.29
  Q 353.77 489.55 354.25 491.50
  Q 354.88 494.06 357.28 494.61
  Q 358.89 494.98 361.24 494.81
  Q 365.77 494.46 365.51 489.29
  Q 365.39 486.72 362.52 485.75
  L 357.01 483.90
  A 1.05 0.87 88.4 0 1 356.41 483.22
  Q 355.30 479.26 360.72 479.57
  A 1.80 1.80 73.7 0 1 362.07 480.31
  Q 364.03 483.02 364.78 481.95
  A 1.03 0.77 55.6 0 0 364.82 481.04
  Q 362.90 476.53 357.66 477.84
  Q 353.75 478.81 354.58 483.46
  A 2.74 2.43 -87.6 0 0 356.25 485.51
  L 361.96 487.43
  A 1.75 1.02 2.7 0 1 362.75 487.94
  Q 364.68 490.44 362.56 492.59
  A 1.33 0.92 -59.3 0 1 361.69 492.99
  L 357.31 492.79
  A 0.87 0.67 78.5 0 1 356.65 492.22
  Z
  M 388.2647 482.1301
  A 4.36 4.36 0.0 0 0 383.9199 477.7549
  L 381.1400 477.7452
  A 4.36 4.36 0.0 0 0 376.7648 482.0900
  L 376.7353 490.5299
  A 4.36 4.36 0.0 0 0 381.0801 494.9051
  L 383.8600 494.9148
  A 4.36 4.36 0.0 0 0 388.2352 490.5700
  L 388.2647 482.1301
  Z
  M 400.22 494.53
  Q 403.97 495.03 407.53 494.57
  Q 407.86 494.52 408.50 494.51
  Q 410.06 494.46 409.13 493.57
  A 1.35 1.33 67.9 0 0 408.25 493.19
  L 402.79 492.99
  A 0.81 0.74 1.5 0 1 402.01 492.24
  L 402.07 478.33
  A 0.58 0.57 89.5 0 0 401.49 477.75
  Q 399.40 477.78 399.68 479.45
  Q 399.97 481.15 399.97 481.21
  Q 400.16 487.50 399.74 493.95
  A 0.55 0.54 6.1 0 0 400.22 494.53
  Z
  M 423.39 494.63
  Q 426.29 495.70 429.12 494.50
  Q 431.76 493.38 431.75 490.56
  L 431.70 478.81
  A 0.90 0.74 -80.4 0 0 431.27 478.05
  Q 430.61 477.74 430.13 478.17
  A 1.26 0.83 75.5 0 0 429.83 479.06
  Q 429.97 483.85 429.78 488.63
  Q 429.77 488.71 429.80 489.87
  Q 429.86 492.67 426.75 493.00
  Q 422.88 493.41 422.29 490.80
  Q 422.26 490.69 422.26 486.68
  Q 422.25 482.55 422.08 478.43
  A 0.60 0.56 -89.0 0 0 421.56 477.86
  Q 420.88 477.81 420.24 478.08
  A 0.85 0.73 80.4 0 0 419.80 478.81
  Q 419.71 483.65 419.74 488.50
  Q 419.76 490.57 420.63 492.26
  Q 421.50 493.93 423.39 494.63
  Z
  M 446.69 480.06
  L 446.75 493.75
  A 1.23 0.82 -77.9 0 0 447.09 494.60
  Q 447.65 495.04 448.16 494.62
  A 1.26 0.81 78.6 0 0 448.50 493.75
  L 448.55 480.06
  A 0.65 0.65 83.6 0 1 449.04 479.44
  Q 450.49 479.08 452.00 479.07
  Q 453.47 479.05 452.87 478.34
  A 1.37 1.02 -12.6 0 0 452.01 477.96
  Q 447.88 477.69 443.75 477.95
  Q 441.20 478.12 442.83 479.24
  A 1.88 1.18 -16.9 0 0 443.75 479.49
  L 446.18 479.53
  A 0.53 0.52 -89.4 0 1 446.69 480.06
  Z
  M 466.2370 478.7980
  A 1.02 1.02 0.0 0 0 465.2152 477.7798
  L 464.9952 477.7802
  A 1.02 1.02 0.0 0 0 463.9770 478.8020
  L 464.0030 493.7420
  A 1.02 1.02 0.0 0 0 465.0248 494.7602
  L 465.2448 494.7598
  A 1.02 1.02 0.0 0 0 466.2630 493.7380
  L 466.2370 478.7980
  Z
  M 489.3658 482.2398
  A 4.47 4.47 0.0 0 0 484.8802 477.7854
  L 482.2202 477.7947
  A 4.47 4.47 0.0 0 0 477.7658 482.2803
  L 477.7942 490.4202
  A 4.47 4.47 0.0 0 0 482.2798 494.8746
  L 484.9398 494.8653
  A 4.47 4.47 0.0 0 0 489.3942 490.3797
  L 489.3658 482.2398
  Z
  M 502.85 482.41
  Q 502.74 480.01 503.80 482.17
  Q 506.43 487.49 508.80 492.92
  Q 509.30 494.08 509.90 494.46
  Q 510.83 495.05 511.98 494.63
  A 0.74 0.69 81.2 0 0 512.45 493.94
  L 512.45 478.56
  A 0.72 0.68 -81.8 0 0 511.97 477.88
  Q 510.31 477.36 510.36 479.50
  Q 510.50 485.00 510.50 490.14
  Q 510.50 492.00 509.69 490.32
  Q 507.32 485.39 505.04 480.43
  Q 505.02 480.38 504.67 479.42
  Q 504.09 477.84 502.24 477.75
  A 0.94 0.94 1.1 0 0 501.25 478.70
  Q 501.29 485.33 501.20 491.91
  Q 501.19 492.27 501.01 493.43
  Q 500.74 495.12 502.37 494.68
  A 1.30 1.29 81.3 0 0 503.32 493.38
  L 502.85 482.41
  Z
  M 526.74 492.19
  Q 526.30 489.90 524.22 490.37
  A 0.50 0.47 75.4 0 0 523.88 490.99
  Q 524.93 494.59 528.25 494.90
  Q 530.61 495.12 532.36 494.60
  Q 534.71 493.89 535.21 490.99
  Q 535.90 486.98 530.47 485.15
  Q 529.28 484.75 528.03 484.64
  Q 525.20 484.38 526.34 480.72
  A 1.22 1.19 85.2 0 1 526.93 480.01
  Q 529.89 478.44 532.32 480.48
  A 1.50 1.02 -82.6 0 1 532.74 481.31
  Q 533.00 483.04 534.28 482.24
  A 0.90 0.84 72.8 0 0 534.67 481.43
  Q 534.44 478.40 531.44 477.81
  Q 529.72 477.47 527.79 477.85
  Q 525.79 478.24 524.84 479.63
  Q 523.60 481.44 524.42 483.59
  Q 524.96 485.02 526.68 485.78
  Q 528.21 486.45 529.81 486.91
  Q 532.07 487.55 532.78 488.31
  Q 534.26 489.89 532.84 492.15
  A 1.33 1.27 6.9 0 1 532.09 492.71
  Q 529.71 493.39 527.29 492.81
  A 0.81 0.69 89.1 0 1 526.74 492.19
  Z
  M 319.29 492.44
  L 319.26 488.45
  A 1.29 1.22 0.0 0 1 320.55 487.23
  L 324.68 487.21
  A 0.93 0.70 8.7 0 0 325.48 486.78
  Q 325.61 486.48 325.51 486.18
  A 0.89 0.58 -4.6 0 0 324.75 485.77
  L 319.93 485.61
  A 0.56 0.56 0.0 0 1 319.38 485.06
  L 319.28 479.81
  A 0.56 0.50 -1.7 0 1 319.82 479.30
  Q 323.16 479.19 326.49 479.03
  Q 328.27 478.94 327.06 478.18
  Q 326.77 478.00 326.40 478.00
  Q 322.33 478.00 318.25 478.00
  A 0.50 0.50 0.0 0 0 317.75 478.50
  L 317.81 493.94
  A 0.51 0.50 90.0 0 0 318.31 494.45
  L 326.93 494.45
  A 0.74 0.62 5.3 0 0 327.63 493.96
  Q 327.83 493.07 326.25 493.25
  Q 323.58 493.56 319.80 493.01
  A 0.59 0.57 4.0 0 1 319.29 492.44
  Z"
/>
<path fill="#0d8cd2" d="
  M 412.25 141.96
  Q 409.36 143.12 410.00 146.50
  Q 410.80 150.69 408.24 154.16
  A 1.23 1.01 61.4 0 0 408.07 155.05
  Q 408.24 155.99 407.75 156.79
  Q 404.96 153.31 402.25 149.76
  Q 401.86 149.26 401.31 149.24
  Q 400.75 149.22 401.11 149.71
  Q 416.02 169.87 416.50 193.50
  Q 417.25 230.45 391.60 255.24
  Q 384.21 262.38 375.76 267.38
  Q 354.05 280.23 328.25 278.25
  Q 306.12 276.55 287.30 263.19
  Q 288.21 262.09 288.25 261.21
  Q 307.30 274.71 330.01 276.18
  Q 339.78 276.81 349.88 274.76
  Q 381.10 268.43 399.53 242.84
  Q 405.63 234.37 409.11 225.34
  Q 414.57 211.18 414.25 195.75
  Q 413.62 165.10 392.92 142.59
  Q 390.47 139.94 386.69 137.56
  Q 377.16 131.59 367.49 128.61
  Q 368.78 126.49 368.75 122.50
  Q 368.71 117.30 368.00 115.29
  Q 379.11 118.37 390.31 124.69
  Q 391.02 125.08 391.28 124.78
  A 0.60 0.41 34.2 0 0 391.00 124.05
  Q 386.17 121.14 381.31 118.27
  Q 359.88 105.57 335.49 105.33
  Q 325.66 105.24 315.65 107.41
  Q 280.26 115.07 258.79 145.50
  Q 258.79 144.30 257.25 144.46
  Q 274.74 118.59 304.31 108.31
  Q 326.46 100.62 349.66 104.45
  Q 376.46 108.87 396.81 126.69
  Q 401.35 130.66 412.25 141.96
  Z"
/>
<path fill="#fcfcfc" d="
  M 368.00 115.29
  Q 352.93 110.89 337.25 112.21
  Q 308.24 113.97 285.71 132.00
  Q 251.08 159.63 249.75 203.50
  Q 249.26 219.64 255.03 236.48
  Q 256.46 240.67 258.58 244.70
  Q 260.68 248.67 263.05 252.49
  Q 263.95 253.95 262.81 253.33
  Q 262.58 253.20 262.40 252.97
  Q 245.37 230.68 243.25 204.00
  Q 240.75 172.54 258.79 145.50
  Q 280.26 115.07 315.65 107.41
  Q 325.66 105.24 335.49 105.33
  Q 359.88 105.57 381.31 118.27
  Q 386.17 121.14 391.00 124.05
  A 0.60 0.41 34.2 0 1 391.28 124.78
  Q 391.02 125.08 390.31 124.69
  Q 379.11 118.37 368.00 115.29
  Z"
/>
<path fill="#137bc4" d="
  M 368.00 115.29
  Q 368.71 117.30 368.75 122.50
  Q 368.78 126.49 367.49 128.61
  Q 353.08 124.09 337.93 125.13
  Q 337.19 119.41 337.48 113.41
  A 0.73 0.65 -13.6 0 1 337.88 112.84
  Q 338.75 112.41 337.25 112.21
  Q 352.93 110.89 368.00 115.29
  Z"
/>
<path fill="#1d62ae" d="
  M 337.25 112.21
  Q 338.75 112.41 337.88 112.84
  A 0.73 0.65 -13.6 0 0 337.48 113.41
  Q 337.19 119.41 337.93 125.13
  Q 309.46 127.63 288.54 147.00
  Q 288.71 145.65 288.00 146.25
  Q 286.70 146.39 287.00 144.75
  Q 287.57 141.64 286.81 135.25
  A 1.86 1.29 30.8 0 0 286.42 134.39
  Q 285.61 133.37 285.71 132.00
  Q 308.24 113.97 337.25 112.21
  Z"
/>
<path fill="#fcfcfc" d="
  M 367.49 128.61
  Q 377.16 131.59 386.69 137.56
  Q 390.47 139.94 392.92 142.59
  Q 413.62 165.10 414.25 195.75
  Q 414.57 211.18 409.11 225.34
  Q 405.63 234.37 399.53 242.84
  Q 381.10 268.43 349.88 274.76
  Q 339.78 276.81 330.01 276.18
  Q 307.30 274.71 288.25 261.21
  Q 278.59 254.82 273.03 244.70
  Q 263.15 226.72 262.95 206.67
  Q 262.85 196.74 265.33 186.87
  Q 271.08 163.90 288.54 147.00
  Q 309.46 127.63 337.93 125.13
  Q 353.08 124.09 367.49 128.61
  Z"
/>
<path fill="#274998" d="
  M 285.71 132.00
  Q 285.61 133.37 286.42 134.39
  A 1.86 1.29 30.8 0 1 286.81 135.25
  Q 287.57 141.64 287.00 144.75
  Q 286.70 146.39 288.00 146.25
  Q 288.71 145.65 288.54 147.00
  Q 271.08 163.90 265.33 186.87
  Q 262.85 196.74 262.95 206.67
  Q 263.15 226.72 273.03 244.70
  Q 278.59 254.82 288.25 261.21
  Q 288.21 262.09 287.30 263.19
  Q 302.01 277.71 322.00 283.29
  L 322.99 284.98
  A 0.42 0.34 -22.6 0 1 322.70 285.50
  Q 321.96 285.73 321.98 286.75
  Q 322.03 291.63 321.96 296.50
  Q 301.22 291.61 286.06 279.44
  Q 278.00 272.96 266.70 260.81
  Q 248.48 241.23 243.08 215.63
  Q 241.02 205.83 241.17 195.76
  Q 241.59 168.01 257.25 144.46
  Q 258.79 144.30 258.79 145.50
  Q 240.75 172.54 243.25 204.00
  Q 245.37 230.68 262.40 252.97
  Q 262.58 253.20 262.81 253.33
  Q 263.95 253.95 263.05 252.49
  Q 260.68 248.67 258.58 244.70
  Q 256.46 240.67 255.03 236.48
  Q 249.26 219.64 249.75 203.50
  Q 251.08 159.63 285.71 132.00
  Z"
/>
<path fill="#03a7e9" d="
  M 412.25 141.96
  Q 425.01 155.79 431.42 173.53
  Q 442.28 203.59 432.81 234.56
  Q 428.73 247.90 420.90 258.76
  Q 420.34 256.31 420.24 253.75
  Q 420.16 251.85 420.11 249.95
  Q 420.09 249.18 420.34 246.19
  Q 420.61 242.89 419.38 239.78
  A 0.33 0.30 -34.0 0 0 418.86 239.70
  Q 418.19 240.33 417.83 239.26
  Q 417.75 239.03 417.81 238.74
  Q 418.09 237.47 417.00 238.71
  Q 432.55 202.30 414.44 167.31
  Q 413.28 165.07 407.75 156.79
  Q 408.24 155.99 408.07 155.05
  A 1.23 1.01 61.4 0 1 408.24 154.16
  Q 410.80 150.69 410.00 146.50
  Q 409.36 143.12 412.25 141.96
  Z"
/>
<path fill="#fcfcfc" d="
  M 407.75 156.79
  Q 413.28 165.07 414.44 167.31
  Q 432.55 202.30 417.00 238.71
  Q 406.07 262.03 384.00 275.21
  Q 370.49 282.68 355.25 285.21
  Q 338.43 287.56 322.00 283.29
  Q 302.01 277.71 287.30 263.19
  Q 306.12 276.55 328.25 278.25
  Q 354.05 280.23 375.76 267.38
  Q 384.21 262.38 391.60 255.24
  Q 417.25 230.45 416.50 193.50
  Q 416.02 169.87 401.11 149.71
  Q 400.75 149.22 401.31 149.24
  Q 401.86 149.26 402.25 149.76
  Q 404.96 153.31 407.75 156.79
  Z"
/>
<path fill="#089ade" d="
  M 420.90 258.76
  Q 406.66 279.79 383.53 290.47
  Q 384.44 282.86 384.00 275.21
  Q 406.07 262.03 417.00 238.71
  Q 418.09 237.47 417.81 238.74
  Q 417.75 239.03 417.83 239.26
  Q 418.19 240.33 418.86 239.70
  A 0.33 0.30 -34.0 0 1 419.38 239.78
  Q 420.61 242.89 420.34 246.19
  Q 420.09 249.18 420.11 249.95
  Q 420.16 251.85 420.24 253.75
  Q 420.34 256.31 420.90 258.76
  Z"
/>
<path fill="#0f86cd" d="
  M 384.00 275.21
  Q 384.44 282.86 383.53 290.47
  Q 370.88 296.48 356.96 298.29
  Q 357.09 292.86 356.79 287.63
  Q 356.78 287.58 356.87 286.39
  Q 356.97 285.10 355.25 285.21
  Q 370.49 282.68 384.00 275.21
  Z"
/>
<path fill="#1773bd" d="
  M 322.00 283.29
  Q 338.43 287.56 355.25 285.21
  Q 356.97 285.10 356.87 286.39
  Q 356.78 287.58 356.79 287.63
  Q 357.09 292.86 356.96 298.29
  Q 339.32 300.78 321.96 296.50
  Q 322.03 291.63 321.98 286.75
  Q 321.96 285.73 322.70 285.50
  A 0.42 0.34 -22.6 0 0 322.99 284.98
  L 322.00 283.29
  Z"
/>
<path fill="#111111" d="
  M 163.8744 427.6413
  A 22.06 22.06 0.0 0 1 141.7759 449.6628
  L 115.5960 449.6171
  A 22.06 22.06 0.0 0 1 93.5745 427.5186
  L 93.6656 375.3187
  A 22.06 22.06 0.0 0 1 115.7641 353.2972
  L 141.9440 353.3429
  A 22.06 22.06 0.0 0 1 163.9655 375.4414
  L 163.8744 427.6413
  Z
  M 153.79 388.00
  Q 154.55 385.31 154.20 382.51
  Q 153.91 380.16 154.03 377.82
  Q 154.21 374.39 153.97 373.18
  Q 152.84 367.38 147.57 363.64
  Q 135.64 361.35 118.75 362.00
  Q 108.72 362.38 105.06 369.86
  Q 103.75 372.52 103.75 377.38
  Q 103.75 401.56 103.75 425.75
  Q 103.75 435.50 111.18 439.28
  Q 113.22 440.31 115.97 440.74
  Q 118.46 441.13 121.00 441.10
  Q 128.00 441.00 135.00 441.18
  Q 140.37 441.33 144.50 440.00
  Q 150.51 438.07 152.64 432.90
  Q 153.74 430.24 153.80 422.94
  Q 153.96 405.47 153.79 388.00
  Z"
/>
<rect fill="#111111" x="-4.52" y="-8.11" transform="translate(385.01,362.63) rotate(0.1)" width="9.04" height="16.22" rx="0.27"/>
<path fill="#fcfcfc" d="
  M 147.57 363.64
  Q 153.79 370.16 153.75 376.75
  Q 153.72 382.38 153.79 388.00
  Q 153.96 405.47 153.80 422.94
  Q 153.74 430.24 152.64 432.90
  Q 150.51 438.07 144.50 440.00
  Q 140.37 441.33 135.00 441.18
  Q 128.00 441.00 121.00 441.10
  Q 118.46 441.13 115.97 440.74
  Q 113.22 440.31 111.18 439.28
  Q 103.75 435.50 103.75 425.75
  Q 103.75 401.56 103.75 377.38
  Q 103.75 372.52 105.06 369.86
  Q 108.72 362.38 118.75 362.00
  Q 135.64 361.35 147.57 363.64
  Z"
/>
<path fill="#929292" d="
  M 147.57 363.64
  Q 152.84 367.38 153.97 373.18
  Q 154.21 374.39 154.03 377.82
  Q 153.91 380.16 154.20 382.51
  Q 154.55 385.31 153.79 388.00
  Q 153.72 382.38 153.75 376.75
  Q 153.79 370.16 147.57 363.64
  Z"
/>
<path fill="#111111" d="
  M 193.09 389.27
  Q 200.21 378.90 212.09 378.61
  Q 218.98 378.44 223.36 379.80
  Q 229.16 381.60 232.57 387.45
  Q 233.27 388.66 233.94 387.43
  Q 238.06 379.86 246.75 379.00
  Q 251.91 378.49 258.55 378.73
  Q 265.92 378.99 270.02 380.92
  Q 280.42 385.81 280.45 399.25
  Q 280.50 423.12 280.50 447.57
  A 0.68 0.68 0.0 0 1 279.82 448.25
  L 271.88 448.25
  A 0.63 0.62 -0.0 0 1 271.25 447.63
  Q 271.23 424.04 271.04 400.98
  Q 270.99 394.72 269.72 392.23
  Q 267.41 387.68 261.50 387.00
  Q 255.91 386.35 249.43 386.83
  Q 244.06 387.23 241.60 389.29
  Q 237.82 392.45 237.75 398.75
  Q 237.48 423.21 237.44 447.68
  A 0.52 0.50 -90.0 0 1 236.94 448.20
  L 228.84 448.20
  A 0.61 0.59 90.0 0 1 228.25 447.59
  Q 228.25 424.64 228.25 402.38
  Q 228.25 395.59 227.37 393.24
  Q 225.44 388.13 219.50 387.00
  Q 215.93 386.32 210.84 386.78
  Q 205.95 387.21 202.73 389.29
  Q 198.40 392.09 195.86 396.69
  Q 194.75 398.71 194.75 401.57
  Q 194.75 424.43 194.75 447.59
  A 0.66 0.66 -89.8 0 1 194.09 448.25
  L 186.08 448.25
  A 0.58 0.58 0.3 0 1 185.50 447.67
  L 185.50 380.66
  A 0.66 0.66 -89.8 0 1 186.16 380.00
  L 190.70 380.00
  A 0.79 0.77 85.6 0 1 191.46 380.67
  L 192.73 389.20
  Q 192.80 389.70 193.09 389.27
  Z"
/>
<path fill="#111111" d="
  M 353.79 384.75
  Q 357.56 390.33 358.68 397.01
  L 358.69 447.69
  A 0.51 0.50 -90.0 0 1 358.19 448.20
  L 350.17 448.24
  A 0.67 0.66 89.6 0 1 349.50 447.57
  Q 349.50 426.89 349.50 406.27
  Q 349.50 396.07 349.00 394.29
  Q 346.96 387.13 337.50 386.76
  Q 332.17 386.55 326.86 386.93
  Q 322.75 387.22 320.01 388.87
  Q 315.20 391.76 312.44 396.73
  Q 311.31 398.77 311.30 401.65
  Q 311.21 424.70 311.25 447.75
  A 0.50 0.50 0.0 0 1 310.75 448.25
  L 302.45 448.25
  A 0.51 0.51 0.0 0 1 301.94 447.74
  L 301.82 380.81
  A 0.64 0.61 83.8 0 1 302.29 380.19
  Q 305.04 379.56 307.71 380.40
  A 0.84 0.71 -86.8 0 1 308.21 381.06
  L 309.24 388.93
  Q 309.39 390.13 310.05 389.08
  Q 316.82 378.33 329.75 378.51
  Q 335.51 378.58 341.25 379.01
  Q 348.63 379.56 353.79 384.75
  Z"
/>
<path fill="#111111" d="
  M 496.61 388.15
  Q 496.92 390.25 498.12 388.51
  Q 502.10 382.74 507.71 380.34
  Q 511.19 378.86 516.99 378.65
  Q 522.69 378.45 526.50 379.50
  Q 533.01 381.28 536.44 387.07
  Q 537.41 388.70 538.32 387.04
  Q 541.47 381.35 547.75 379.50
  Q 550.94 378.56 557.25 378.60
  Q 564.47 378.65 566.75 378.93
  Q 569.98 379.32 573.05 380.46
  Q 576.22 381.64 578.52 383.76
  Q 583.14 388.03 584.23 394.08
  Q 584.50 395.58 584.50 405.44
  Q 584.50 426.30 584.50 447.69
  A 0.56 0.56 89.8 0 1 583.94 448.25
  L 576.12 448.25
  A 0.87 0.87 0.0 0 1 575.25 447.38
  Q 575.25 424.75 575.25 401.75
  Q 575.25 397.22 574.63 394.78
  Q 572.99 388.37 566.50 387.00
  Q 564.15 386.50 553.26 386.92
  Q 541.74 387.37 541.74 399.00
  Q 541.75 422.63 541.75 447.47
  A 0.78 0.78 0.0 0 1 540.97 448.25
  L 533.05 448.25
  A 0.56 0.55 90.0 0 1 532.50 447.69
  Q 532.61 422.37 532.25 397.25
  Q 532.18 392.44 528.85 389.56
  Q 526.34 387.40 521.59 386.90
  Q 518.48 386.57 515.34 386.73
  Q 511.95 386.90 509.31 388.04
  Q 502.51 391.00 499.29 397.97
  Q 498.75 399.14 498.75 400.41
  L 498.75 447.64
  A 0.61 0.61 0.0 0 1 498.14 448.25
  L 490.19 448.25
  A 0.69 0.69 0.0 0 1 489.50 447.56
  L 489.50 380.66
  A 0.66 0.66 0.0 0 1 490.16 380.00
  L 494.38 380.00
  A 1.19 1.19 85.8 0 1 495.56 381.02
  L 496.61 388.15
  Z"
/>
<rect fill="#111111" x="380.50" y="380.01" width="9.00" height="68.24" rx="0.26"/>
<path fill="#111111" d="
  M 460.84 440.04
  Q 460.61 438.20 459.57 439.80
  Q 454.53 447.54 445.50 449.50
  Q 442.46 450.16 433.67 449.81
  Q 426.06 449.51 422.08 447.82
  Q 413.69 444.24 411.77 435.49
  Q 411.25 433.12 411.26 420.47
  Q 411.28 400.72 411.19 380.76
  A 0.75 0.75 89.6 0 1 411.94 380.00
  L 419.62 380.05
  A 0.91 0.89 -89.7 0 1 420.51 380.97
  Q 420.33 406.38 420.70 430.23
  Q 420.76 434.24 422.07 436.47
  Q 425.46 442.27 433.26 441.70
  Q 436.00 441.50 438.73 441.73
  Q 449.62 442.64 456.31 433.31
  Q 458.79 429.86 458.68 427.00
  Q 458.34 417.88 458.52 408.75
  Q 458.79 394.72 458.69 380.69
  A 0.54 0.51 89.5 0 1 459.19 380.15
  L 467.55 380.02
  A 0.53 0.50 89.5 0 1 468.06 380.55
  L 467.94 447.69
  A 0.52 0.51 90.0 0 1 467.43 448.21
  L 463.03 448.23
  A 1.45 1.28 86.0 0 1 461.74 446.96
  L 460.84 440.04
  Z"
/>
<path fill="#7e7e7f" d="
  M 353.79 384.75
  Q 359.23 389.60 358.68 397.01
  Q 357.56 390.33 353.79 384.75
  Z"
/>
<rect fill="#898889" x="142.75" y="477.78" width="2.00" height="16.98" rx="0.78"/>
<path fill="#898889" d="
  M 158.80 481.82
  L 158.75 493.74
  A 1.21 0.84 78.0 0 1 158.39 494.60
  Q 157.75 495.08 157.11 494.60
  A 1.15 0.84 -76.8 0 1 156.75 493.75
  Q 156.75 487.04 156.75 480.33
  Q 156.75 480.25 156.66 479.18
  Q 156.50 477.21 158.86 478.04
  A 2.55 2.26 84.6 0 1 160.22 479.31
  L 165.69 490.82
  Q 166.25 492.00 166.25 490.68
  L 166.25 478.75
  A 1.10 0.74 79.1 0 1 166.61 477.91
  Q 167.10 477.59 167.62 477.92
  A 1.07 0.80 -77.8 0 1 168.00 478.75
  Q 168.00 484.65 168.00 490.54
  Q 168.00 490.63 168.26 492.93
  Q 168.53 495.37 165.67 494.48
  A 1.28 1.04 81.4 0 1 164.99 493.86
  L 159.06 481.76
  Q 158.81 481.24 158.80 481.82
  Z"
/>
<path fill="#898889" d="
  M 182.53 483.87
  Q 184.66 484.72 186.84 485.46
  Q 189.46 486.34 190.20 487.26
  Q 191.51 488.87 190.75 491.50
  Q 190.02 494.02 187.96 494.63
  Q 186.39 495.10 184.15 494.92
  Q 181.39 494.71 180.02 492.08
  Q 179.71 491.48 179.79 490.87
  Q 180.02 489.17 181.34 490.44
  A 1.58 0.94 -82.3 0 1 181.71 491.31
  Q 181.86 492.51 182.94 492.81
  Q 184.89 493.37 187.50 492.86
  A 1.45 1.24 9.2 0 0 188.31 492.37
  Q 189.67 490.52 188.80 488.88
  Q 188.18 487.72 186.03 487.05
  Q 182.75 486.03 182.06 485.69
  Q 178.76 484.03 180.00 480.50
  Q 180.74 478.39 182.76 477.90
  Q 184.18 477.54 186.26 477.63
  Q 189.58 477.76 190.44 481.06
  Q 190.98 483.16 189.27 482.42
  A 1.17 0.89 89.2 0 1 188.71 481.71
  Q 188.04 479.40 185.00 479.50
  Q 180.91 479.63 181.91 483.21
  A 1.05 0.96 4.5 0 0 182.53 483.87
  Z"
/>
<path fill="#929292" d="
  M 204.69 494.31
  Q 202.17 493.17 202.29 489.99
  Q 202.49 484.38 202.50 478.75
  A 0.84 0.77 78.4 0 1 202.94 478.01
  Q 204.77 477.15 204.25 479.75
  Q 203.89 481.58 204.33 487.49
  Q 204.62 491.28 204.72 491.49
  Q 205.62 493.38 209.57 492.81
  Q 211.79 492.49 211.82 490.38
  L 212.01 478.74
  A 0.86 0.77 78.8 0 1 212.44 478.01
  Q 214.85 476.83 214.45 480.27
  Q 214.12 483.23 214.19 490.19
  Q 214.21 492.13 212.99 493.43
  Q 211.99 494.49 210.10 494.87
  Q 207.18 495.45 204.69 494.31
  Z"
/>
<path fill="#898889" d="
  M 228.02 489.57
  L 228.13 493.69
  A 0.83 0.65 80.1 0 1 227.74 494.42
  Q 225.80 495.33 225.94 493.06
  Q 226.00 492.05 226.00 491.94
  Q 226.04 485.71 225.92 478.66
  A 0.82 0.81 87.4 0 1 226.67 477.83
  Q 229.92 477.54 233.02 477.84
  Q 235.53 478.09 236.39 479.95
  Q 237.07 481.41 237.10 483.47
  Q 237.13 486.12 234.76 488.34
  A 0.43 0.38 57.1 0 0 234.69 488.82
  L 237.26 493.98
  A 0.50 0.49 66.7 0 1 236.99 494.67
  Q 236.35 494.91 235.76 494.56
  Q 235.37 494.32 235.09 493.65
  Q 234.24 491.61 233.28 489.63
  A 0.90 0.73 75.1 0 0 232.58 489.12
  L 228.56 489.02
  A 0.54 0.53 90.0 0 0 228.02 489.57
  Z
  M 234.7792 480.6419
  A 1.05 1.05 0.0 0 0 233.7329 479.5883
  L 229.0129 479.5718
  A 1.05 1.05 0.0 0 0 227.9592 480.6181
  L 227.9408 485.8981
  A 1.05 1.05 0.0 0 0 228.9871 486.9517
  L 233.7071 486.9682
  A 1.05 1.05 0.0 0 0 234.7608 485.9219
  L 234.7792 480.6419
  Z"
/>
<path fill="#898889" d="
  M 256.94 491.29
  Q 254.72 491.18 252.52 491.00
  Q 250.44 490.83 250.44 492.95
  A 1.79 1.79 -13.0 0 1 249.43 494.56
  Q 247.52 495.50 248.22 493.28
  Q 250.42 486.31 252.63 479.33
  Q 253.41 476.86 254.95 478.08
  Q 255.63 478.61 255.98 479.81
  Q 258.06 486.91 260.29 493.97
  A 0.58 0.54 70.2 0 1 259.99 494.67
  Q 258.70 495.21 258.25 493.75
  Q 257.83 492.41 257.61 491.78
  A 0.74 0.72 -8.0 0 0 256.94 491.29
  Z
  M 253.69 481.42
  L 251.48 488.81
  A 0.53 0.52 -81.3 0 0 251.97 489.50
  L 256.51 489.50
  A 0.40 0.40 81.4 0 0 256.89 488.98
  L 254.54 481.39
  Q 254.12 480.01 253.69 481.42
  Z"
/>
<path fill="#898889" d="
  M 280.27 490.61
  Q 280.66 491.37 280.75 490.52
  Q 281.31 484.96 280.81 479.42
  Q 280.74 478.57 281.10 478.19
  Q 281.56 477.72 282.26 478.05
  A 0.90 0.68 -80.6 0 1 282.66 478.81
  L 282.79 493.75
  A 0.97 0.91 87.8 0 1 281.94 494.72
  Q 279.80 494.86 279.13 493.30
  Q 276.79 487.85 274.50 482.37
  A 0.87 0.45 70.8 0 0 273.89 481.79
  Q 273.56 481.82 273.56 482.50
  Q 273.55 488.22 273.45 493.94
  A 0.76 0.68 82.6 0 1 272.98 494.63
  Q 271.50 495.14 271.50 493.00
  Q 271.50 486.00 271.50 478.66
  A 0.64 0.63 -6.2 0 1 272.00 478.04
  Q 273.74 477.64 274.51 478.51
  Q 274.60 478.62 275.45 480.52
  Q 277.75 485.66 280.27 490.61
  Z"
/>
<path fill="#7e7e7f" d="
  M 302.98 479.86
  Q 300.05 478.64 297.72 479.75
  A 2.46 2.26 -14.2 0 0 296.31 481.90
  L 296.47 491.17
  Q 296.50 493.00 298.49 493.00
  Q 300.08 493.00 301.67 493.00
  Q 302.69 493.00 303.19 492.55
  Q 303.86 491.96 303.98 491.00
  A 1.39 0.63 88.2 0 1 304.34 490.13
  Q 304.85 489.71 305.41 490.15
  A 1.00 0.81 -70.5 0 1 305.71 491.00
  Q 305.51 492.53 304.51 493.58
  Q 303.66 494.47 302.09 494.68
  Q 299.35 495.05 296.80 494.26
  Q 294.95 493.69 294.75 491.76
  Q 294.27 487.23 294.56 482.70
  Q 294.74 479.95 296.20 478.86
  Q 297.93 477.58 300.75 477.75
  Q 304.95 478.00 305.82 481.47
  Q 306.01 482.24 305.67 482.61
  Q 305.32 482.99 304.64 482.76
  A 1.10 0.73 84.1 0 1 304.08 482.08
  L 303.62 480.52
  A 1.17 0.98 6.1 0 0 302.98 479.86
  Z"
/>
<path fill="#7e7e7f" d="
  M 357.31 492.79
  L 361.69 492.99
  A 1.33 0.92 -59.3 0 0 362.56 492.59
  Q 364.68 490.44 362.75 487.94
  A 1.75 1.02 2.7 0 0 361.96 487.43
  L 356.25 485.51
  A 2.74 2.43 -87.6 0 1 354.58 483.46
  Q 353.75 478.81 357.66 477.84
  Q 362.90 476.53 364.82 481.04
  A 1.03 0.77 55.6 0 1 364.78 481.95
  Q 364.03 483.02 362.07 480.31
  A 1.80 1.80 73.7 0 0 360.72 479.57
  Q 355.30 479.26 356.41 483.22
  A 1.05 0.87 88.4 0 0 357.01 483.90
  L 362.52 485.75
  Q 365.39 486.72 365.51 489.29
  Q 365.77 494.46 361.24 494.81
  Q 358.89 494.98 357.28 494.61
  Q 354.88 494.06 354.25 491.50
  Q 353.77 489.55 355.55 490.29
  A 1.25 1.13 88.8 0 1 356.19 490.97
  L 356.65 492.22
  A 0.87 0.67 78.5 0 0 357.31 492.79
  Z"
/>
<path fill="#898889" d="
  M 388.2352 490.5700
  A 4.36 4.36 0.0 0 1 383.8600 494.9148
  L 381.0801 494.9051
  A 4.36 4.36 0.0 0 1 376.7353 490.5299
  L 376.7648 482.0900
  A 4.36 4.36 0.0 0 1 381.1400 477.7452
  L 383.9199 477.7549
  A 4.36 4.36 0.0 0 1 388.2647 482.1301
  L 388.2352 490.5700
  Z
  M 386.5229 482.1120
  A 2.70 2.70 0.0 0 0 383.8513 479.3839
  L 381.2715 479.3569
  A 2.70 2.70 0.0 0 0 378.5434 482.0284
  L 378.4571 490.2680
  A 2.70 2.70 0.0 0 0 381.1287 492.9961
  L 383.7085 493.0231
  A 2.70 2.70 0.0 0 0 386.4366 490.3516
  L 386.5229 482.1120
  Z"
/>
<path fill="#898889" d="
  M 400.22 494.53
  A 0.55 0.54 6.1 0 1 399.74 493.95
  Q 400.16 487.50 399.97 481.21
  Q 399.97 481.15 399.68 479.45
  Q 399.40 477.78 401.49 477.75
  A 0.58 0.57 89.5 0 1 402.07 478.33
  L 402.01 492.24
  A 0.81 0.74 1.5 0 0 402.79 492.99
  L 408.25 493.19
  A 1.35 1.33 67.9 0 1 409.13 493.57
  Q 410.06 494.46 408.50 494.51
  Q 407.86 494.52 407.53 494.57
  Q 403.97 495.03 400.22 494.53
  Z"
/>
<path fill="#929292" d="
  M 420.63 492.26
  Q 419.76 490.57 419.74 488.50
  Q 419.71 483.65 419.80 478.81
  A 0.85 0.73 80.4 0 1 420.24 478.08
  Q 420.88 477.81 421.56 477.86
  A 0.60 0.56 -89.0 0 1 422.08 478.43
  Q 422.25 482.55 422.26 486.68
  Q 422.26 490.69 422.29 490.80
  Q 422.88 493.41 426.75 493.00
  Q 429.86 492.67 429.80 489.87
  Q 429.77 488.71 429.78 488.63
  Q 429.97 483.85 429.83 479.06
  A 1.26 0.83 75.5 0 1 430.13 478.17
  Q 430.61 477.74 431.27 478.05
  A 0.90 0.74 -80.4 0 1 431.70 478.81
  L 431.75 490.56
  Q 431.76 493.38 429.12 494.50
  Q 426.29 495.70 423.39 494.63
  Q 421.50 493.93 420.63 492.26
  Z"
/>
<path fill="#898889" d="
  M 446.18 479.53
  L 443.75 479.49
  A 1.88 1.18 -16.9 0 1 442.83 479.24
  Q 441.20 478.12 443.75 477.95
  Q 447.88 477.69 452.01 477.96
  A 1.37 1.02 -12.6 0 1 452.87 478.34
  Q 453.47 479.05 452.00 479.07
  Q 450.49 479.08 449.04 479.44
  A 0.65 0.65 83.6 0 0 448.55 480.06
  L 448.50 493.75
  A 1.26 0.81 78.6 0 1 448.16 494.62
  Q 447.65 495.04 447.09 494.60
  A 1.23 0.82 -77.9 0 1 446.75 493.75
  L 446.69 480.06
  A 0.53 0.52 -89.4 0 0 446.18 479.53
  Z"
/>
<rect fill="#929292" x="-1.13" y="-8.49" transform="translate(465.12,486.27) rotate(-0.1)" width="2.26" height="16.98" rx="1.02"/>
<path fill="#7e7e7f" d="
  M 489.3942 490.3797
  A 4.47 4.47 0.0 0 1 484.9398 494.8653
  L 482.2798 494.8746
  A 4.47 4.47 0.0 0 1 477.7942 490.4202
  L 477.7658 482.2803
  A 4.47 4.47 0.0 0 1 482.2202 477.7947
  L 484.8802 477.7854
  A 4.47 4.47 0.0 0 1 489.3658 482.2398
  L 489.3942 490.3797
  Z
  M 487.4827 482.0831
  A 2.74 2.74 0.0 0 0 484.7379 479.3479
  L 482.2979 479.3521
  A 2.74 2.74 0.0 0 0 479.5627 482.0969
  L 479.5773 490.4369
  A 2.74 2.74 0.0 0 0 482.3221 493.1721
  L 484.7621 493.1679
  A 2.74 2.74 0.0 0 0 487.4973 490.4231
  L 487.4827 482.0831
  Z"
/>
<path fill="#898889" d="
  M 502.85 482.41
  L 503.32 493.38
  A 1.30 1.29 81.3 0 1 502.37 494.68
  Q 500.74 495.12 501.01 493.43
  Q 501.19 492.27 501.20 491.91
  Q 501.29 485.33 501.25 478.70
  A 0.94 0.94 1.1 0 1 502.24 477.75
  Q 504.09 477.84 504.67 479.42
  Q 505.02 480.38 505.04 480.43
  Q 507.32 485.39 509.69 490.32
  Q 510.50 492.00 510.50 490.14
  Q 510.50 485.00 510.36 479.50
  Q 510.31 477.36 511.97 477.88
  A 0.72 0.68 -81.8 0 1 512.45 478.56
  L 512.45 493.94
  A 0.74 0.69 81.2 0 1 511.98 494.63
  Q 510.83 495.05 509.90 494.46
  Q 509.30 494.08 508.80 492.92
  Q 506.43 487.49 503.80 482.17
  Q 502.74 480.01 502.85 482.41
  Z"
/>
<path fill="#898889" d="
  M 527.29 492.81
  Q 529.71 493.39 532.09 492.71
  A 1.33 1.27 6.9 0 0 532.84 492.15
  Q 534.26 489.89 532.78 488.31
  Q 532.07 487.55 529.81 486.91
  Q 528.21 486.45 526.68 485.78
  Q 524.96 485.02 524.42 483.59
  Q 523.60 481.44 524.84 479.63
  Q 525.79 478.24 527.79 477.85
  Q 529.72 477.47 531.44 477.81
  Q 534.44 478.40 534.67 481.43
  A 0.90 0.84 72.8 0 1 534.28 482.24
  Q 533.00 483.04 532.74 481.31
  A 1.50 1.02 -82.6 0 0 532.32 480.48
  Q 529.89 478.44 526.93 480.01
  A 1.22 1.19 85.2 0 0 526.34 480.72
  Q 525.20 484.38 528.03 484.64
  Q 529.28 484.75 530.47 485.15
  Q 535.90 486.98 535.21 490.99
  Q 534.71 493.89 532.36 494.60
  Q 530.61 495.12 528.25 494.90
  Q 524.93 494.59 523.88 490.99
  A 0.50 0.47 75.4 0 1 524.22 490.37
  Q 526.30 489.90 526.74 492.19
  A 0.81 0.69 89.1 0 0 527.29 492.81
  Z"
/>
<path fill="#7e7e7f" d="
  M 319.80 493.01
  Q 323.58 493.56 326.25 493.25
  Q 327.83 493.07 327.63 493.96
  A 0.74 0.62 5.3 0 1 326.93 494.45
  L 318.31 494.45
  A 0.51 0.50 90.0 0 1 317.81 493.94
  L 317.75 478.50
  A 0.50 0.50 0.0 0 1 318.25 478.00
  Q 322.33 478.00 326.40 478.00
  Q 326.77 478.00 327.06 478.18
  Q 328.27 478.94 326.49 479.03
  Q 323.16 479.19 319.82 479.30
  A 0.56 0.50 -1.7 0 0 319.28 479.81
  L 319.38 485.06
  A 0.56 0.56 38.8 0 0 319.93 485.61
  L 324.75 485.77
  A 0.89 0.58 -4.6 0 1 325.51 486.18
  Q 325.61 486.48 325.48 486.78
  A 0.93 0.70 8.7 0 1 324.68 487.21
  L 320.55 487.23
  A 1.29 1.22 0.0 0 0 319.26 488.45
  L 319.29 492.44
  A 0.59 0.57 4.0 0 0 319.80 493.01
  Z"
/>
<rect fill="#fcfcfc" x="-3.99" y="-6.82" transform="translate(382.49,486.19) rotate(0.6)" width="7.98" height="13.64" rx="2.70"/>
<rect fill="#fcfcfc" x="-3.96" y="-6.91" transform="translate(483.53,486.26) rotate(-0.1)" width="7.92" height="13.82" rx="2.74"/>
<rect fill="#fcfcfc" x="-3.41" y="-3.69" transform="translate(231.36,483.27) rotate(0.2)" width="6.82" height="7.38" rx="1.05"/>
<path fill="#fcfcfc" d="
  M 253.69 481.42
  Q 254.12 480.01 254.54 481.39
  L 256.89 488.98
  A 0.40 0.40 81.4 0 1 256.51 489.50
  L 251.97 489.50
  A 0.53 0.52 -81.3 0 1 251.48 488.81
  L 253.69 481.42
  Z"
/>
</svg>
